<?xml version="1.0" encoding="utf-8"?>
<!-- Generator: Adobe Illustrator 24.0.0, SVG Export Plug-In . SVG Version: 6.00 Build 0)  -->
<svg version="1.1" id="Слой_1" xmlns="http://www.w3.org/2000/svg" xmlns:xlink="http://www.w3.org/1999/xlink" x="0px" y="0px"
	 viewBox="0 0 400 150" style="enable-background:new 0 0 400 150;" xml:space="preserve">
<style type="text/css">
	.st0{fill:none;}
	.st1{fill:#BED01C;}
	.st2{fill:#486E2F;}
	.st3{fill-rule:evenodd;clip-rule:evenodd;fill:#3A3185;}
</style>
<g id="Слой_x0020_1">
	<path class="st0" d="M360.6,19.1c8.1,0,14.7,6.4,14.7,14.2c0,7.8-6.6,14.2-14.7,14.2c-8.1,0-14.7-6.4-14.7-14.2
		C345.9,25.4,352.5,19.1,360.6,19.1z"/>
</g>
<path class="st1" d="M41.3,56.7c0-2.9,0-6,0-9.4c0-3.4,0-6.6,0-9.8c0-3.2,0-8.4,0-11c0-2.6,0-4.7,0-6.2h10.8c0,1.4,0,3.4,0,6
	c0,2.6-0.1,7.7-0.1,10.7c0,3.1-0.1,6.2-0.1,9.5c0,3.3,0,6.3,0,9.2h3.4c0,0.9,0,2.2,0,4c0,1.8,0,4.9-0.1,6.8c0,2,0,3.8-0.1,5.6
	c0,1.8,0,3.1,0,3.9H44.9c0-0.7,0-1.8,0-3.3c0-1.4,0-3,0.1-4.6c-8.8,0-17.7-0.2-26.5-0.2c0-1.3,0-4.3,0-6.5s0-4.8,0-7.5
	c0-2.7,0-5.6,0.1-8.6c0-3,0-5.9,0.1-8.6c0-2.7,0-7.6,0-9.8c0-2.3,0-4.1,0-5.4h10.8c0,1.4,0,3.4,0,5.9c0,2.5,0,7.6,0,10.6
	c0,3,0,6.1,0,9.3c0,3.2,0,6.2,0,9L41.3,56.7L41.3,56.7z M78.1,31c-0.4-0.2-1.1-0.3-2-0.3c-3.9,0-6.4,3.1-7.5,9.4
	c1.5,0,3-0.1,4.5-0.2c1.5-0.1,2.9-0.2,4.3-0.4l1.2,10.3c-1.5,0.2-3.1,0.3-4.7,0.4c-1.6,0.1-3.3,0.1-5.1,0.2
	c1.4,5.8,5.6,7.4,12.6,7.4L82.4,68c-14,0-25.1-8.4-25.1-22.7c0-12.6,6.1-26.4,22-25.1L78.1,31L78.1,31z M118.9,20.3
	c0,1.3,0,3.1,0,5.5c0,2.3,0,6.8,0,9.6c0,2.8,0,5.8-0.1,8.8c0,3.1,0.1,6.5,0.1,9.3c0,2.8,0,5.4,0,7.7c0,2.3,0,4.1,0,5.5H108
	c0-1.6,0-3.9,0-6.9c0-3-0.1-6.9-0.1-10.5c-2.3-0.1-4.4-0.2-6.2-0.3c-1.8-0.1-3.5-0.2-5.1-0.2c0,2,0.1,4.4,0.1,6.3c0,1.9,0,3.7,0,5.3
	c0,1.6,0,3.1,0,4.5c0,1.3,0,2.4,0,3.3H85.9c0-1.3,0-3.2,0-5.5c0-2.3,0-4.9,0-7.7c0-2.8-0.1-6.2-0.1-9.3c0-3.1,0-6,0.1-8.8
	c0-2.8,0-7.2,0-9.5c0-2.3,0-4.1,0-5.5h10.8c0,1.5,0,3.5,0,6.1c0,2.6,0,7.3-0.1,10.4c1.7,0.1,3.4,0.2,5.2,0.2
	c1.8,0.1,3.8,0.2,6.1,0.3c0-3.5,0-8.7,0-11.6c0-3,0-5.3,0-6.9L118.9,20.3L118.9,20.3z M145.5,31.7h-6.6c0.1,3.2,0.2,6.8,0.2,10.7
	c0.1,3.9,0.1,8.2,0.1,12.9V68h-10.8c0-17.3-0.1-30.1-0.4-36.4h-5.4V20.2c0.6,0,1.6,0,2.8,0c1.2,0,2.5,0,4,0c1.5,0,3,0,4.6,0
	c1.6,0,3.1,0,4.6,0c1.5,0,2.8,0,4,0c1.2,0,2.2,0,2.8,0L145.5,31.7L145.5,31.7z M148.9,20.4c6.7,0,12.3,0.3,16.6,1
	c4.3,0.6,7.8,1.7,10.3,3.1c2.5,1.4,4.3,3.2,5.3,5.5c1,2.2,1.5,4.9,1.5,8.1c0,4.3-1.7,8-5,11.1c-3.3,3.1-9.3,5.3-16.1,6.7
	c0.1,1.9,0.2,5,0.2,6.9c0,1.9,0.1,3.7,0.1,5.4h-10.8C150.9,52.5,151.6,35.8,148.9,20.4L148.9,20.4z M160.7,30.7
	c0.4,2.6,0.6,5.2,0.8,7.7c0.2,2.5,0.3,4.8,0.4,6.9c6.6-1.5,10-4.5,10-9c0-0.8-0.3-1.6-0.9-2.3c-0.6-0.7-1.4-1.3-2.4-1.8
	c-1-0.5-2.2-0.9-3.5-1.2C163.7,30.8,162.3,30.7,160.7,30.7L160.7,30.7z"/>
<path class="st2" d="M40.3,55.7c0-0.8,0-2,0-3.5c0-1.6,0-3.2,0-4.9c0-1.7,0-3.3,0-4.9c0-0.9,0-2.5,0-4.8c0-3,0-8.1,0-11
	c0-1.3,0-2.5,0-3.5c0-0.6,0-1.5,0-2.7c0-0.5,0.4-1,1-1h10.8c0.6,0,1,0.4,1,1c0,0.3,0,1.1,0,2.6c0,1,0,2.1,0,3.4c0,0.6,0,1.4,0,2.2
	c0,2.7,0,6.2-0.1,8.5c0,1.5,0,3.1-0.1,4.7c0,1.6,0,3.2,0,4.8c0,1.6,0,3.2,0,4.7c0,0.7,0,1.9,0,3.5h2.4c0.6,0,1,0.4,1,1
	c0,0.1,0,0.7,0,1.7c0,0.7,0,1.5,0,2.3c0,1,0,2.3,0,3.6c0,1.2,0,2.3,0,3.2c0,1,0,1.9,0,2.9c0,1,0,1.9,0,2.7c0,0.9,0,1.7,0,2.3
	c0,0.4,0,0.9,0,1.6c0,0.5-0.4,1-1,1H44.9c-0.6,0-1-0.4-1-1v-3.3c0-0.6,0-1.3,0-2.3c0-0.5,0-1,0-1.4c-3.8,0-8-0.1-12.2-0.1
	c-4.2,0-8.5-0.1-13.2-0.1c-0.6,0-1-0.4-1-1v-6.5c0-0.6,0-1.8,0-3.6c0-1.3,0-2.6,0-3.9c0-1.4,0-2.8,0-4.2c0-1.4,0-2.9,0-4.4
	c0-1.5,0-3,0-4.4c0-1.4,0-2.8,0-4.2c0-1.2,0-2.8,0-4.5c0-1.3,0-3.5,0-5.4v-5.4c0-0.5,0.4-1,1-1h10.8c0.6,0,1,0.4,1,1
	c0,0.3,0,1.1,0,2.6c0,1,0,2.1,0,3.4c0,1.1,0,2.8,0,4.5c0,1.3,0,3.7,0,6.1c0,0.8,0,2.3,0,4.6c0,1.5,0,3.1,0,4.7c0,1.6,0,3.2,0,4.7
	c0,0.7,0,1.8,0,3.5L40.3,55.7L40.3,55.7z M42.3,52.1c0,0.9,0,2.4,0,4.5h0c0,0,0,0,0,0c0,0.5-0.5,0.9-1,0.9l-11.9-0.5c0,0,0,0,0,0
	c-0.6,0-1-0.4-1-1c0-0.7,0-2.2,0-4.4c0-1.5,0-3.1,0-4.7c0-1.6,0-3.2,0-4.7c0-0.8,0-2.4,0-4.6c0-1,0-3.1,0-6.1c0-1.8,0-3.4,0-4.5
	c0-1.3,0-2.4,0-3.4c0-0.4,0-0.9,0-1.6h-8.8v4.5c0,0.6,0,2.6,0,5.4c0,1.6,0,3.2,0,4.5c0,1.4,0,2.8,0,4.2s0,2.9,0,4.4c0,1.5,0,3,0,4.4
	c0,1.5,0,2.9,0,4.2c0,1.4,0,2.7,0,3.9c0,0.7,0,1.9,0,3.6v5.6c3.8,0,8,0.1,12.2,0.1c4.2,0,8.5,0.1,13.2,0.1v0c0,0,0,0,0,0
	c0.6,0,1,0.4,1,1c0,0.8,0,1.6-0.1,2.4c0,0.6,0,1.3,0,2.2V75h8.3l0-0.6c0-0.7,0-1.4,0-2.3c0-0.9,0-1.9,0-2.7c0-0.9,0-1.9,0-2.9
	c0-0.9,0-2.1,0-3.2c0-1.3,0-2.7,0-3.6c0-0.9,0-1.7,0-2.3c0-0.2,0-0.4,0-0.7H52c-0.6,0-1-0.4-1-1c0-0.7,0-2.2,0-4.5
	c0-1.5,0-3.1,0-4.7c0-1.6,0-3.2,0-4.8c0-1.6,0-3.1,0.1-4.7c0-2.3,0.1-5.9,0.1-8.5c0-0.8,0-1.6,0-2.2c0-1.3,0-2.4,0-3.4
	c0-0.4,0-0.9,0-1.6h-8.9c0,0.4,0,1,0,1.7c0,1,0,2.2,0,3.5c0,2.3,0,7.6,0,11c0,0.8,0,2.4,0,4.8c0,1.6,0,3.3,0,4.9
	C42.3,49,42.3,50.6,42.3,52.1L42.3,52.1z M77.7,31.9c-0.1,0-0.3-0.1-0.5-0.1c-0.3,0-0.6-0.1-1.1-0.1c-1.6,0-3,0.7-4,2
	c-1,1.3-1.8,3.1-2.3,5.5c0.3,0,0.7,0,1,0c0.7,0,1.4-0.1,2.2-0.1l0,0c0.7,0,1.4-0.1,2.1-0.1c0.7-0.1,1.4-0.2,2.1-0.3
	c0.5-0.1,1.1,0.3,1.1,0.8c0,0,0,0,0,0h0l1.2,10.3c0.1,0.5-0.3,1-0.9,1v0c-0.8,0.1-1.6,0.2-2.4,0.2c-0.8,0.1-1.6,0.1-2.4,0.1
	c-0.8,0-1.6,0.1-2.5,0.1c-0.4,0-0.9,0-1.3,0c0.7,2,1.8,3.3,3.4,4.1c1.9,1,4.6,1.4,7.9,1.4c0.5,0,1,0.4,1,0.9l1.2,10.2
	c0.1,0.5-0.3,1-0.9,1c0,0-0.1,0-0.1,0v0c-7.4,0-14.1-2.3-18.9-6.6c-4.5-4.1-7.2-9.8-7.2-17c0-1.2,0.1-2.4,0.2-3.7
	c0.5-5.6,2.3-11.2,5.6-15.3c3.4-4.3,8.3-7.1,15.1-7.1c0.7,0,1.4,0,2.2,0.1c0.5,0,1,0.5,0.9,1l0,0l0,0l-1.2,10.7
	C79,31.6,78.5,32,78,32C77.9,31.9,77.8,31.9,77.7,31.9L77.7,31.9z M76.1,29.8c0.4,0,0.8,0,1.2,0.1l1-8.7c-0.3,0-0.7,0-1,0
	c-6.1,0-10.5,2.5-13.5,6.3c-3.1,3.9-4.7,9.1-5.2,14.4c-0.1,1.2-0.2,2.3-0.2,3.5c0,6.6,2.5,11.9,6.6,15.6c4.1,3.7,9.9,5.9,16.4,6.1
	l-0.9-8.3c-3.2-0.1-5.9-0.5-7.9-1.6c-2.3-1.2-3.9-3.3-4.7-6.5h0c0-0.1,0-0.1,0-0.2c0-0.5,0.4-1,1-1c0.9,0,1.7,0,2.6-0.1
	c0.8,0,1.7-0.1,2.5-0.1c0.8,0,1.5-0.1,2.4-0.1c0.4,0,0.9-0.1,1.3-0.1l-0.9-8.4c-0.4,0-0.8,0.1-1.1,0.1c-0.7,0.1-1.5,0.1-2.2,0.2h0
	c-0.7,0-1.4,0.1-2.2,0.1c-0.7,0-1.5,0-2.2,0.1c-0.1,0-0.2,0-0.2,0c-0.5-0.1-0.9-0.6-0.8-1.1c0.6-3.3,1.5-5.8,2.9-7.5
	C71.9,30.7,73.8,29.8,76.1,29.8L76.1,29.8z M119.9,20.3v5.5c0,0.6,0,2.5,0,5.1c0,1.6,0,3.2,0,4.4c0,1.4,0,2.8,0,4.3c0,1.5,0,3,0,4.5
	c0,1.6,0,3.2,0,4.8c0,1.6,0,3.1,0,4.5c0,1.4,0,2.8,0,4c0,0.7,0,1.9,0,3.7v5.5c0,0.5-0.4,1-1,1H108c-0.6,0-1-0.4-1-1v-6.9
	c0-1.5,0-2.7,0-3.9c0-1.8,0-3.8,0-5.7c-0.8,0-1.6-0.1-2.3-0.1c-1.1-0.1-2-0.1-2.9-0.1c-0.9,0-1.8-0.1-2.6-0.1c-0.5,0-1,0-1.4-0.1
	c0,0.8,0,1.5,0.1,2.2c0,1.1,0.1,2.3,0.1,3.1c0,0.5,0,1.5,0,2.8c0,0.9,0,1.8,0,2.6c0,0.8,0,1.6,0,2.3c0,0.4,0,1.1,0,2.1V68
	c0,0.5-0.4,1-1,1H85.9c-0.6,0-1-0.4-1-1v-5.5c0-0.6,0-1.8,0-3.7c0-1.3,0-2.6,0-4c0-1.4,0-2.9,0-4.5c0-1.6,0-3.3,0-4.8
	c0-3.1,0-6,0.1-8.8v0c0-1.3,0-2.9,0-4.5c0-1.2,0-3.2,0-5.1v-5.5c0-0.5,0.4-1,1-1h10.8c0.6,0,1,0.4,1,1v6.1c0,1.1,0,3.1,0,5.6
	c0,1.4,0,2.8,0,4c0.5,0,1.1,0.1,1.6,0.1c0.9,0,1.8,0.1,2.6,0.1c0.9,0,1.9,0.1,2.9,0.1c0.7,0,1.5,0.1,2.2,0.1c0-1.2,0-3.1,0-5.5
	c0-1.9,0-3.8,0-5.2c0-1.5,0-2.8,0-4c0-0.6,0-1.6,0-2.9c0-0.5,0.4-1,1-1h10.8C119.5,19.3,119.9,19.7,119.9,20.3L119.9,20.3z
	 M117.9,25.7v-4.5h-8.8c0,0.5,0,1.1,0,2c0,1.1,0,2.5,0,4c0,1.4,0,3.2,0,5.2c0,1.3,0,3.8,0,6.5h0c0,0,0,0,0,0.1
	c0,0.5-0.5,0.9-1.1,0.9c-1.2-0.1-2.3-0.1-3.3-0.2c-1,0-2-0.1-2.8-0.1c-0.9,0-1.8-0.1-2.6-0.1c-0.9,0-1.7-0.1-2.6-0.1v0
	c-0.5,0-1-0.4-0.9-1c0-1.4,0-3.2,0-4.9c0-1.7,0-3.8,0-5.6v-5.2H87v4.5c0,0.6,0,2.4,0,5.1c0,1.6,0,3.2,0,4.5v0c0,2.8,0,5.7-0.1,8.8
	c0,1.6,0,3.2,0,4.8c0,1.6,0,3.1,0,4.5c0,1.4,0,2.8,0,4c0,0.7,0,1.9,0,3.7v4.5h8.8v-2.4c0-0.3,0-1,0-2.1c0-0.8,0-1.5,0-2.4
	c0-0.8,0-1.7,0-2.6c0-0.5,0-1.4,0-2.7c0-1,0-2-0.1-3.1c0-1.2-0.1-2.4-0.1-3.3h0c0,0,0,0,0,0c0-0.5,0.5-0.9,1-0.9
	c0.8,0,1.7,0,2.5,0.1c0.9,0,1.7,0.1,2.6,0.1c1,0,1.9,0.1,2.9,0.1c1.1,0.1,2.2,0.1,3.3,0.2v0c0.5,0,0.9,0.4,0.9,1c0,2.2,0,4.5,0,6.6
	c0,1.5,0,3,0,3.9v6h8.8v-4.5c0-0.6,0-1.8,0-3.7c0-1.3,0-2.6,0-4c0-1.4,0-2.9,0-4.5c0-1.6,0-3.3,0-4.8c0-1.5,0-3,0-4.5
	c0-1.5,0-2.9,0-4.3c0-1.3,0-2.9,0-4.4C117.9,29.7,117.9,27.6,117.9,25.7L117.9,25.7z M145.5,32.7h-5.5c0,1.3,0.1,2.7,0.1,4.1
	c0,1.8,0.1,3.6,0.1,5.6c0,1.9,0.1,4,0.1,6.1c0,2.5,0,4.7,0,6.8V68c0,0.5-0.4,1-1,1h-10.8c-0.6,0-1-0.4-1-1c0-9,0-16.5-0.1-22.5
	c-0.1-5.5-0.2-9.9-0.3-13h-4.4c-0.6,0-1-0.4-1-1V20.2c0-0.5,0.4-1,1-1h2.8c0.3,0,0.9,0,1.9,0c0.7,0,1.4,0,2.1,0c0.7,0,1.5,0,2.2,0
	c0.4,0,1.2,0,2.3,0c0.4,0,1.2,0,2.4,0c0.8,0,1.5,0,2.3,0c0.7,0,1.4,0,2.1,0c0.4,0,1,0,1.9,0h2.8c0.6,0,1,0.4,1,1v11.4
	C146.5,32.3,146,32.7,145.5,32.7L145.5,32.7z M138.9,30.8h5.5v-9.5h-1.8c-0.3,0-0.9,0-1.9,0c-0.7,0-1.4,0-2.1,0c-0.7,0-1.5,0-2.3,0
	c-0.4,0-1.2,0-2.3,0c-0.4,0-1.2,0-2.3,0c-0.8,0-1.5,0-2.2,0c-0.7,0-1.4,0-2.1,0c-0.4,0-1,0-1.9,0h-1.8v9.5h4.4v0c0.5,0,1,0.4,1,0.9
	c0.1,3.1,0.2,7.9,0.3,14c0.1,6.2,0.1,13.4,0.1,21.5h8.8V55.3c0-2.7,0-4.9,0-6.8c0-2.1,0-4.2-0.1-6.1c0-1.9-0.1-3.8-0.1-5.6
	c0-1.7-0.1-3.4-0.1-5c0,0,0-0.1,0-0.1C137.9,31.2,138.4,30.8,138.9,30.8L138.9,30.8z M148.9,19.4c6.8,0,12.4,0.3,16.8,1
	c2.2,0.3,4.2,0.8,6,1.3c1.8,0.5,3.3,1.2,4.7,1.9c1.4,0.8,2.5,1.6,3.4,2.6c1,1,1.7,2.1,2.3,3.3c0.5,1.2,0.9,2.5,1.2,3.9
	c0.3,1.4,0.4,2.9,0.4,4.6c0,2.3-0.4,4.4-1.3,6.4c-0.9,2-2.2,3.8-4,5.4c-1.7,1.6-4,2.9-6.7,4c-2.7,1.1-5.8,2-9.1,2.7
	c0.1,1.7,0.1,3.8,0.2,5.4l0,0.7c0,0.9,0,1.8,0.1,2.8c0,1.1,0,2,0,2.7c0,0.5-0.4,1-1,1h-10.8c-0.6,0-1-0.4-1-1c0-1.9,0-4.8,0-7.7
	c0.1-13.2,0.2-27-2-39.9c-0.1-0.5,0.3-1,0.8-1.1C148.8,19.4,148.9,19.4,148.9,19.4L148.9,19.4L148.9,19.4z M165.4,22.3
	c-4-0.6-9.1-0.9-15.3-1c2,12.7,1.9,26.1,1.9,39.1c0,2,0,4.1,0,6.7h8.8c0-0.6,0-1.2,0-1.7c0-0.9,0-1.8-0.1-2.7l0-0.7
	c0-1.8-0.1-4.4-0.2-6.2c0-0.5,0.3-0.9,0.8-1c3.5-0.7,6.7-1.6,9.5-2.8c2.5-1,4.6-2.3,6.1-3.7c1.6-1.4,2.8-3,3.5-4.8
	c0.8-1.7,1.2-3.6,1.2-5.6c0-1.5-0.1-2.9-0.4-4.2c-0.2-1.3-0.6-2.4-1.1-3.5c-0.5-1-1.1-1.9-1.9-2.8c-0.8-0.8-1.8-1.6-3-2.2
	c-1.2-0.7-2.6-1.2-4.3-1.7C169.4,23,167.5,22.6,165.4,22.3L165.4,22.3z M161.8,31.7c0.1,1,0.2,1.9,0.3,2.8c0.1,1.3,0.3,2.6,0.3,3.8
	c0.1,1.2,0.2,2.4,0.2,3.6c0,0.7,0.1,1.5,0.1,2.2c2.6-0.7,4.5-1.7,5.8-2.9c1.4-1.3,2.2-2.9,2.2-4.9c0-0.3-0.1-0.6-0.2-0.9
	c-0.1-0.3-0.3-0.6-0.5-0.9c-0.2-0.3-0.5-0.6-0.8-0.8c-0.3-0.3-0.7-0.5-1.2-0.7c-0.5-0.2-1-0.4-1.5-0.6c-0.5-0.2-1.1-0.3-1.8-0.5
	c-0.7-0.1-1.3-0.2-2-0.3C162.5,31.7,162.2,31.7,161.8,31.7L161.8,31.7z M160.1,34.7c-0.1-1.3-0.3-2.5-0.5-3.8c0-0.1,0-0.1,0-0.2
	c0-0.5,0.4-1,1-1c0.8,0,1.6,0,2.4,0.1c0.8,0.1,1.5,0.2,2.2,0.3c0.7,0.1,1.4,0.3,2,0.5c0.6,0.2,1.2,0.5,1.8,0.7
	c0.6,0.3,1.1,0.6,1.5,0.9c0.5,0.4,0.9,0.7,1.2,1.2c0.3,0.4,0.6,0.9,0.8,1.4c0.2,0.5,0.3,1,0.3,1.5c0,2.5-0.9,4.6-2.8,6.3
	c-1.8,1.6-4.4,2.8-7.9,3.6c-0.1,0-0.2,0-0.2,0c-0.5,0-1-0.4-1-0.9c0-1-0.1-2.1-0.2-3.3c-0.1-1.1-0.1-2.3-0.2-3.6
	C160.4,37.2,160.3,35.9,160.1,34.7L160.1,34.7z"/>
<path class="st1" d="M145.4,127.5c0.4-1.5,0.9-3.3,1.4-5.5c0.5-2.2,1.1-4.9,1.8-7.9c-1.4,0.2-2.8,0.6-4.3,1c-1.5,0.4-3.1,1-4.7,1.6
	c-1.6,0.6-3.1,1.3-4.7,2.1c-1.5,0.8-3,1.7-4.3,2.6c0.2,1.9,0.8,3.7,1.5,5.6l-10.9,2.4c-3.2-12.8-5.8-30.1,2.1-40.5
	c1.9-2.3,4.1-4.1,6.8-5.4c2.6-1.3,5.5-1.9,8.7-1.9c3.1,0,6.1,0.7,8.8,2c2.7,1.3,5,3.2,7,5.5c8.2,9.7,6.5,20.4,4.1,31.4
	c-0.6,2.6-1.4,5.7-2.4,9.5L145.4,127.5L145.4,127.5z M149.4,103.9c-0.2-1.7-0.7-3.2-1.3-4.7c-0.6-1.5-1.4-2.7-2.3-3.7
	c-0.9-1-2-1.8-3.2-2.4c-1.2-0.6-2.5-0.9-3.8-0.9c-1.6,0-3,0.4-4.3,1.2c-1.3,0.8-2.3,1.8-3.2,3.2c-0.9,1.3-1.5,2.9-2,4.8
	c-0.5,1.8-0.7,3.8-0.7,5.9c0,1.5,0.1,2.8,0.2,4.1c1.4-0.9,3-1.8,4.8-2.6c1.8-0.8,3.6-1.6,5.5-2.2c1.9-0.6,3.7-1.2,5.5-1.6
	C146.4,104.4,148,104.1,149.4,103.9L149.4,103.9z M221.6,81.9c-0.9,14.4-1.7,28.8,0.2,42.7c0.3,1.8,0.4,3.6,0.7,5.3l-11.1,0.4
	c-0.8-3.6-1.3-7.2-1.5-10.7c-0.2-3.5-0.3-7-0.3-10.5c0-0.6,0-1.1,0-1.7c0-0.5,0-1.1,0.1-1.7c-1,2.1-2.5,5.1-4.3,9.3
	c-1.8,4.1-4.1,9.3-6.8,15.7l-11.7-1.1c0-16-0.1-31.6,0.6-47.6l11.1-0.5c-0.3,4.3-0.6,8.4-0.7,12.3c-0.1,3.8-0.6,9.1-0.6,12.8
	c0,0.5,0,1,0,1.4c0,0.4,0,0.9,0.1,1.4c2.3-4.3,4.9-10.3,7.2-14.8c2.3-4.5,4.6-9.2,7-14L221.6,81.9L221.6,81.9z M245.9,92.6
	c-13.1,0.5-15,29.5,2.7,27.9l1.2,10.6c-0.3,0-0.6,0.1-0.9,0.1s-0.6,0-1,0c-15,0-22.8-10.6-23-24.7c-0.2-13,6.6-26.1,20.6-24.9
	c0.5,0,1,0.1,1.5,0.1L245.9,92.6L245.9,92.6z M274.6,93.4h-6.8c0.1,3.4,0.2,7,0.2,11c0.1,4,0.1,8.4,0.1,13.3v11.6H257
	c0-17.9-0.1-29.5-0.4-36H251V81.5c0.7,0,1.6,0,2.9,0c1.2,0,2.6,0,4.1,0c1.5,0,3.1,0,4.7,0c1.6,0,3.2,0,4.8,0c1.5,0,2.9,0,4.2,0
	c1.2,0,2.2,0,2.9,0V93.4L274.6,93.4z M278.1,81.6c7,0,12.7,0.3,17.2,1c11,1.6,17.7,6.4,17.7,17.2c0,4.5-1.7,8.3-5.2,11.5
	c-3.5,3.2-8.7,5.5-15.8,6.9c0.1,2,0.2,4,0.2,5.9c0,1.9,0.1,3.5,0.1,5.3h-11.2C281.1,113.4,280.8,97.3,278.1,81.6L278.1,81.6z
	 M290.2,92.2c0.4,2.7,0.7,5.4,0.8,8c0.2,2.6,0.3,5,0.4,7.2c6.9-1.6,10.3-4.6,10.3-9.3c0-0.8-0.3-1.6-0.9-2.4
	c-0.6-0.7-1.4-1.4-2.4-1.9c-1-0.5-2.3-0.9-3.7-1.2C293.4,92.4,291.9,92.2,290.2,92.2L290.2,92.2z M344.4,127.4
	c1.2-4.3,2.5-8.3,3.5-12.7c-1.4,0.2-2.8,0.6-4.3,1c-1.5,0.4-3.1,1-4.7,1.6c-1.6,0.6-3.1,1.3-4.7,2.1c-1.5,0.8-3,1.7-4.3,2.6
	c0.2,1.7,0.7,3.2,1.3,4.8l-10.9,2.4c-1.2-3.4-2-6.2-2.7-10.2c-0.8-3.9-1.1-7.9-1.1-12c0-3.6,0.5-7,1.5-10.1c1-3.1,2.5-5.8,4.3-8.1
	c1.9-2.3,4.1-4.1,6.8-5.4c2.6-1.3,5.5-1.9,8.7-1.9c3.1,0,6.1,0.7,8.8,2c2.7,1.3,5,3.2,7,5.5c2,2.3,3.5,5,4.6,8.1
	c3.9,11.1,0.2,22-2.7,32.7L344.4,127.4L344.4,127.4z M348.3,103.9c-0.2-1.7-0.7-3.2-1.3-4.7c-0.6-1.5-1.4-2.7-2.3-3.7
	c-0.9-1-2-1.8-3.2-2.4c-1.2-0.6-2.5-0.9-3.8-0.9c-1.6,0-3,0.4-4.3,1.2c-1.3,0.8-2.3,1.8-3.2,3.2c-0.9,1.3-1.5,2.9-2,4.8
	c-0.5,1.8-0.7,3.8-0.7,5.9c0,1.5,0.1,2.8,0.2,4.1c1.4-0.9,3-1.8,4.8-2.6c1.8-0.8,3.6-1.6,5.5-2.2c1.9-0.6,3.7-1.2,5.5-1.6
	C345.3,104.4,346.9,104,348.3,103.9L348.3,103.9z"/>
<path class="st2" d="M144.4,127.2c0.2-0.7,0.4-1.5,0.6-2.4c0.2-0.9,0.5-1.9,0.8-3c0.3-1.1,0.5-2.3,0.9-3.6c0.2-1,0.4-1.9,0.6-2.9
	c-0.2,0-0.4,0.1-0.6,0.1c-0.7,0.2-1.4,0.4-2.2,0.6c-0.7,0.2-1.5,0.5-2.3,0.7c-0.7,0.3-1.5,0.5-2.3,0.9c-0.8,0.3-1.5,0.6-2.3,1
	c-0.8,0.4-1.5,0.7-2.3,1.1c-0.7,0.4-1.4,0.8-2.2,1.2c-0.5,0.3-1.1,0.7-1.6,1c0.1,0.7,0.3,1.4,0.5,2.1c0.3,0.9,0.6,1.8,0.9,2.7
	c0.2,0.5-0.1,1-0.6,1.2c0,0-0.1,0-0.1,0v0l-10.9,2.4c-0.5,0.1-1.1-0.2-1.2-0.7h0c-1.6-6.5-3.1-14.1-3.1-21.4
	c-0.1-7.4,1.3-14.5,5.5-19.9c0,0,0,0,0,0l0,0c1-1.2,2.1-2.3,3.2-3.2c1.2-0.9,2.5-1.8,3.8-2.4c1.4-0.7,2.9-1.2,4.4-1.5
	c1.5-0.3,3.1-0.5,4.8-0.5c3.3,0,6.4,0.7,9.2,2.1c1.4,0.7,2.7,1.5,3.9,2.5c1.2,1,2.3,2,3.4,3.3c4.2,5,5.9,10.3,6.2,15.8
	c0.3,5.4-0.7,10.9-1.9,16.5c-0.3,1.3-0.6,2.7-1,4.3c-0.4,1.6-0.9,3.4-1.4,5.2c-0.1,0.5-0.7,0.8-1.2,0.7l0,0l-10.9-2.5
	c-0.5-0.1-0.9-0.6-0.7-1.1C144.4,127.3,144.4,127.2,144.4,127.2L144.4,127.2z M147,125.3c-0.1,0.5-0.3,1.1-0.4,1.6l9,2
	c0.4-1.5,0.8-3,1.1-4.3c0.4-1.5,0.7-3,1-4.3c1.2-5.5,2.2-10.8,1.9-16c-0.3-5.1-1.9-10-5.8-14.7c-0.9-1.1-2-2.1-3.1-3
	c-1.1-0.9-2.3-1.6-3.6-2.3c-2.6-1.3-5.3-1.9-8.3-1.9c-1.5,0-3,0.2-4.4,0.5c-1.4,0.3-2.7,0.8-3.9,1.4c-1.2,0.6-2.4,1.3-3.5,2.2
	c-1.1,0.9-2.1,1.8-3,2.9l0,0c-3.8,5-5.1,11.7-5.1,18.7c0.1,6.8,1.4,13.9,2.9,20l8.9-2c-0.2-0.6-0.4-1.2-0.6-1.8c-0.3-1-0.5-2-0.6-3
	h0c0-0.3,0.1-0.6,0.4-0.9c0.7-0.5,1.4-0.9,2.2-1.4c0.7-0.4,1.5-0.9,2.3-1.3c0.8-0.4,1.6-0.8,2.4-1.2c0.8-0.4,1.6-0.7,2.4-1
	c0.8-0.3,1.6-0.6,2.4-0.9c0.8-0.3,1.6-0.5,2.4-0.8c0.8-0.2,1.5-0.4,2.3-0.6c0.8-0.2,1.5-0.3,2.2-0.4l0,0c0.1,0,0.2,0,0.4,0
	c0.5,0.1,0.9,0.6,0.8,1.1c-0.4,1.7-0.7,3.1-0.9,4.3c-0.3,1.3-0.6,2.5-0.9,3.7C147.5,123.3,147.2,124.3,147,125.3L147,125.3z
	 M148.3,103.1c-0.1-0.5-0.2-0.9-0.3-1.4c-0.2-0.7-0.5-1.4-0.8-2.1c-0.3-0.7-0.6-1.3-1-1.9c-0.4-0.6-0.7-1.1-1.2-1.6
	c-0.4-0.5-0.9-0.9-1.3-1.3c-0.5-0.4-1-0.7-1.5-1c-0.5-0.3-1.1-0.5-1.6-0.6c-0.5-0.1-1.1-0.2-1.7-0.2c-0.7,0-1.4,0.1-2,0.3
	c-0.6,0.2-1.2,0.4-1.8,0.8c-0.6,0.4-1.1,0.8-1.6,1.2c-0.5,0.5-0.9,1-1.3,1.6c-0.4,0.6-0.8,1.3-1.1,2.1c-0.3,0.8-0.6,1.6-0.8,2.4
	c-0.2,0.9-0.4,1.8-0.5,2.7c-0.1,0.9-0.2,1.9-0.2,2.9c0,0.8,0,1.5,0,2.1c0,0.1,0,0.2,0,0.3c0.3-0.2,0.6-0.3,0.9-0.5
	c0.8-0.5,1.7-0.9,2.6-1.3c0.9-0.4,1.9-0.8,2.8-1.2c0.9-0.4,1.9-0.7,2.8-1c0.9-0.3,1.9-0.6,2.8-0.9c0.9-0.3,1.8-0.5,2.7-0.7
	c0.9-0.2,1.8-0.4,2.6-0.6C147.4,103.3,147.8,103.2,148.3,103.1L148.3,103.1z M149.9,101.3c0.2,0.8,0.4,1.7,0.5,2.5l0,0v0
	c0.1,0.5-0.3,1-0.9,1.1c-0.7,0.1-1.4,0.2-2.2,0.4c-0.8,0.2-1.6,0.3-2.5,0.6c-0.9,0.2-1.8,0.5-2.7,0.7c-0.9,0.3-1.8,0.5-2.7,0.9
	c-0.9,0.3-1.8,0.6-2.7,1c-0.9,0.4-1.8,0.7-2.7,1.1c-0.9,0.4-1.7,0.8-2.5,1.2c-0.8,0.4-1.5,0.8-2.1,1.3c-0.1,0.1-0.3,0.2-0.5,0.2
	c-0.5,0.1-1-0.3-1.1-0.8c-0.1-0.6-0.1-1.3-0.2-2c0-0.7-0.1-1.5-0.1-2.2c0-1.1,0.1-2.1,0.2-3.2c0.1-1,0.3-2,0.6-3
	c0.2-1,0.5-1.9,0.9-2.7c0.4-0.8,0.8-1.6,1.2-2.3c0.5-0.7,1-1.4,1.6-2c0.6-0.6,1.2-1.1,1.9-1.5c0.7-0.4,1.5-0.8,2.3-1
	c0.8-0.2,1.7-0.3,2.5-0.3c0.7,0,1.5,0.1,2.2,0.3c0.7,0.2,1.4,0.4,2.1,0.8c0.7,0.3,1.3,0.7,1.9,1.2c0.6,0.4,1.1,0.9,1.6,1.5
	c0.5,0.6,1,1.2,1.4,1.8c0.4,0.7,0.8,1.4,1.1,2.1C149.4,99.6,149.6,100.4,149.9,101.3L149.9,101.3z M222.6,82
	c-0.4,7.2-0.9,14.4-0.9,21.5c-0.1,7.1,0.2,14.1,1.2,21.1c0.1,1,0.2,1.8,0.3,2.6c0.1,1,0.2,1.9,0.3,2.7c0.1,0.5-0.3,1-0.9,1.1
	c0,0-0.1,0-0.1,0l-11,0.4c-0.5,0-0.9-0.3-1-0.8l0,0c-0.4-1.8-0.7-3.6-1-5.4c-0.3-1.8-0.4-3.6-0.5-5.4c-0.1-1.7-0.2-3.5-0.2-5.3
	c0-1.4-0.1-2.7-0.1-3.9c-0.7,1.5-1.5,3.2-2.2,5c-0.9,2-1.9,4.4-3.1,7c-1.1,2.6-2.3,5.5-3.7,8.7c-0.2,0.4-0.6,0.6-1.1,0.6l-11.7-1.1
	c-0.5,0-0.9-0.5-0.9-0.9h0c0-9.8,0-2.1,0-4.7c0-14.4,0-28.6,0.6-43c0-0.5,0.4-0.9,1-0.9l0,0l11.1-0.5c0.5,0,1,0.4,1,0.9
	c0,0,0,0.1,0,0.1h0c-0.2,2.2-0.3,4.3-0.4,6.3c-0.1,2.1-0.2,4-0.3,5.9c-0.1,1.6-0.2,3.4-0.3,5.1c-0.1,2.2-0.3,4.5-0.3,6.5
	c0.8-1.6,1.6-3.2,2.4-4.9c1-2.2,2.1-4.4,3.1-6.3c0.9-1.9,2.1-4.2,3.5-6.9c1.4-2.7,2.6-5.1,3.6-7.1c0.2-0.4,0.6-0.6,1.1-0.5l9.8,1.3
	C222.3,81.1,222.7,81.5,222.6,82L222.6,82L222.6,82z M219.7,103.4c0.1-6.9,0.4-13.8,0.9-20.7l-8.2-1.1c-1.3,2.5-2.4,4.7-3.3,6.5
	c-1,1.9-2.1,4.2-3.4,6.9c-0.9,1.9-2,4.1-3,6.3c-1.4,3-2.8,6-4.2,8.5l0,0c-0.1,0.3-0.4,0.5-0.7,0.5c-0.5,0.1-1.1-0.3-1.2-0.8
	c-0.1-0.3-0.1-0.5-0.1-0.8c0-0.3,0-0.5,0-0.8v-1.4c0-2.2,0.2-5,0.4-7.7c0.1-1.8,0.2-3.6,0.3-5.1c0.1-2,0.2-3.9,0.3-6
	c0.1-1.7,0.2-3.5,0.3-5.3l-9.1,0.4C188,97.1,188,111,188,125c0,5.4,0-1.3,0,3.8l10.1,0.9c1.2-2.9,2.4-5.6,3.4-8
	c1.1-2.6,2.1-4.9,3.1-7c1-2.2,1.8-4,2.5-5.4c0.7-1.5,1.3-2.7,1.8-3.8c0.2-0.4,0.6-0.7,1.1-0.6c0.5,0.1,0.9,0.6,0.8,1.1
	c0,0.3-0.1,0.5-0.1,0.8c0,0.2,0,0.5,0,0.7v1.7c0,1.8,0,3.5,0.1,5.2c0.1,1.7,0.1,3.4,0.2,5.2c0.1,1.7,0.3,3.5,0.5,5.2
	c0.2,1.5,0.5,3,0.8,4.5l9.1-0.3c-0.1-0.6-0.1-1.1-0.2-1.7c-0.1-0.9-0.2-1.8-0.3-2.6C219.9,117.7,219.7,110.6,219.7,103.4
	L219.7,103.4z M245.9,93.6c-4.3,0.2-7.3,4-8.6,8.6c-0.5,1.9-0.7,4-0.6,6c0.1,2,0.5,3.9,1.3,5.6c1.7,3.7,5.1,6.3,10.5,5.8
	c0.5,0,1,0.3,1.1,0.8l0,0l1.2,10.6c0.1,0.5-0.3,1-0.9,1c-0.2,0-0.3,0-0.5,0.1c-0.2,0-0.4,0-0.5,0h-1c-7.5,0-13.3-2.6-17.3-6.9
	c-4.3-4.6-6.5-11.2-6.7-18.7c0-1.4,0-2.7,0.2-4.1c0.5-5.6,2.4-11,5.6-15c3.2-4.1,7.8-6.7,13.8-6.8c0.7,0,1.4,0,2.2,0.1
	c0.3,0,0.5,0,0.7,0.1c0.3,0,0.6,0.1,0.8,0.1c0.5,0,1,0.5,0.9,1l0,0h0l-1.2,10.8C246.8,93.2,246.4,93.6,245.9,93.6L245.9,93.6z
	 M235.4,101.7c1.4-5.1,4.7-9.3,9.6-9.9l1-9.1c-0.2,0-0.4,0-0.5,0c-0.7-0.1-1.3-0.1-2-0.1c-5.3,0.1-9.4,2.5-12.2,6.1
	c-2.9,3.7-4.7,8.7-5.2,14c-0.1,1.3-0.2,2.6-0.2,3.9c0.1,7.1,2.2,13.2,6.2,17.5c3.6,3.9,8.9,6.2,15.9,6.2h0.7l-1-8.7
	c-5.8,0.2-9.6-2.8-11.5-7c-0.9-1.9-1.4-4.1-1.5-6.3C234.6,106,234.8,103.8,235.4,101.7L235.4,101.7z M274.6,94.4h-5.7
	c0,1.4,0.1,2.8,0.1,4.3c0,1.8,0.1,3.8,0.1,5.8c0,2,0.1,4.1,0.1,6.4c0,2.5,0,4.9,0,7v11.6c0,0.5-0.4,1-1,1H257c-0.6,0-1-0.4-1-1
	c0-9.2,0-16.5-0.1-22.3c-0.1-5.4-0.2-9.6-0.3-12.8H251c-0.6,0-1-0.4-1-1V81.5c0-0.5,0.4-1,1-1h2.9c0.3,0,1,0,2,0c0.7,0,1.4,0,2.2,0
	c0.8,0,1.5,0,2.3,0c0.4,0,1.2,0,2.4,0c0.5,0,1.3,0,2.4,0c0.8,0,1.6,0,2.3,0h0l0,0c0.8,0,1.5,0,2.2,0c0.4,0,1,0,2,0h2.9
	c0.6,0,1,0.4,1,1v11.8C275.6,93.9,275.1,94.4,274.6,94.4L274.6,94.4z M267.8,92.5h5.8v-9.9h-1.9c-0.3,0-1,0-2,0c-0.7,0-1.4,0-2.2,0
	l0,0c-0.8,0-1.5,0-2.3,0c-0.4,0-1.2,0-2.4,0c-0.5,0-1.3,0-2.4,0c-0.8,0-1.6,0-2.3,0c-0.8,0-1.5,0-2.1,0c-0.4,0-1,0-2,0H252v9.9h4.6
	v0c0.5,0,1,0.4,1,0.9c0.1,3.3,0.2,7.8,0.3,13.8c0.1,5.9,0.1,13,0.1,21.3h9.1v-10.6c0-2.8,0-5.1,0-7c0-2.2,0-4.3-0.1-6.3
	c0-2-0.1-3.9-0.1-5.8c0-1.8-0.1-3.5-0.1-5.2c0,0,0-0.1,0-0.1C266.8,92.9,267.3,92.5,267.8,92.5L267.8,92.5z M278.1,80.6
	c3.5,0,6.7,0.1,9.6,0.3c2.9,0.2,5.5,0.4,7.8,0.8c5.7,0.8,10.3,2.5,13.5,5.4c3.2,2.9,5,7,5,12.7c0,2.4-0.5,4.6-1.4,6.6
	c-0.9,2-2.3,3.9-4.1,5.6c-1.8,1.7-4.1,3.1-6.8,4.3c-2.5,1.1-5.4,2-8.6,2.7c0,0.7,0.1,1.5,0.1,2.2c0,1,0.1,1.9,0.1,2.9
	c0,1,0,1.8,0.1,2.7c0,1.1,0,1.9,0,2.6c0,0.5-0.4,1-1,1h-11.2c-0.6,0-1-0.4-1-1c0-8-0.1-16-0.5-23.9c-0.4-8-1.1-15.9-2.5-23.7
	c-0.1-0.5,0.3-1,0.8-1.1C278,80.6,278.1,80.6,278.1,80.6L278.1,80.6L278.1,80.6z M287.6,82.8c-2.5-0.1-5.3-0.2-8.3-0.2
	c1.2,7.5,1.9,15.2,2.3,22.8c0.4,7.7,0.5,15.4,0.5,23h9.2c0-0.6,0-1.2,0-1.6c0-0.9,0-1.7-0.1-2.7c0-0.9-0.1-1.9-0.1-2.9
	c0-0.9-0.1-1.9-0.1-2.9c0-0.5,0.3-0.9,0.8-1c3.5-0.7,6.5-1.6,9-2.7c2.5-1.1,4.6-2.4,6.3-3.9c1.6-1.5,2.8-3.1,3.7-4.9
	c0.8-1.8,1.2-3.7,1.2-5.8c0-5.1-1.6-8.8-4.4-11.3c-2.9-2.6-7.1-4.1-12.4-4.9C292.9,83.2,290.4,82.9,287.6,82.8L287.6,82.8z
	 M291.4,93.2c0.1,1,0.2,2,0.4,3c0.1,1.4,0.3,2.7,0.4,4c0.1,1.3,0.2,2.5,0.2,3.7c0,0.8,0.1,1.5,0.1,2.3c2.7-0.7,4.7-1.7,6.1-3
	c1.5-1.4,2.3-3,2.3-5.1c0-0.3-0.1-0.6-0.2-0.9c-0.1-0.3-0.3-0.6-0.5-0.9c-0.2-0.3-0.5-0.6-0.9-0.9c-0.4-0.3-0.8-0.5-1.2-0.8
	c-0.5-0.2-1-0.4-1.6-0.6c-0.6-0.2-1.2-0.3-1.9-0.5c-0.7-0.1-1.4-0.2-2.1-0.3C292.2,93.2,291.8,93.2,291.4,93.2L291.4,93.2z
	 M289.7,96.4c-0.1-1.3-0.3-2.6-0.5-3.9c0-0.1,0-0.1,0-0.2c0-0.5,0.4-1,1-1c0.8,0,1.7,0,2.5,0.1c0.8,0.1,1.6,0.2,2.3,0.3
	c0.7,0.2,1.4,0.3,2.1,0.6c0.7,0.2,1.3,0.5,1.8,0.7c0.6,0.3,1.1,0.6,1.6,1c0.5,0.4,0.9,0.8,1.2,1.2c0.4,0.4,0.6,0.9,0.8,1.4
	c0.2,0.5,0.3,1,0.3,1.5c0,2.6-1,4.7-2.9,6.5c-1.8,1.6-4.5,2.9-8.1,3.7c-0.1,0-0.2,0-0.2,0c-0.6,0-1-0.4-1-0.9c0-1.1-0.1-2.2-0.2-3.4
	c-0.1-1.2-0.2-2.4-0.2-3.7C290,99,289.9,97.7,289.7,96.4L289.7,96.4z M343.5,127.1c0.3-1.1,0.6-2,0.8-2.9c0.8-2.8,1.6-5.5,2.3-8.3
	c-0.2,0-0.4,0.1-0.6,0.1c-0.7,0.2-1.4,0.4-2.2,0.6c-0.7,0.2-1.5,0.5-2.3,0.7c-0.7,0.3-1.5,0.5-2.3,0.9c-0.8,0.3-1.5,0.6-2.3,1
	c-0.8,0.4-1.5,0.7-2.3,1.1l0,0c-0.7,0.4-1.5,0.8-2.2,1.2c-0.5,0.3-1.1,0.7-1.6,1c0.1,0.6,0.2,1.2,0.4,1.7c0.2,0.8,0.5,1.5,0.8,2.3
	c0.2,0.5-0.1,1-0.6,1.2c0,0-0.1,0-0.1,0v0l-10.9,2.4c-0.5,0.1-1-0.2-1.2-0.7c-0.6-1.7-1.1-3.2-1.6-4.9c-0.4-1.7-0.8-3.4-1.2-5.4
	c-0.4-2-0.7-4-0.9-6c-0.2-2.1-0.3-4.1-0.3-6.1c0-1.8,0.1-3.6,0.4-5.4c0.3-1.7,0.7-3.4,1.2-5c0.5-1.6,1.2-3.1,1.9-4.5
	c0.8-1.4,1.6-2.7,2.6-3.9l0,0l0,0c1-1.2,2.1-2.3,3.3-3.2c1.2-0.9,2.5-1.8,3.8-2.4c1.4-0.7,2.9-1.2,4.4-1.5c1.5-0.3,3.1-0.5,4.8-0.5
	c3.3,0,6.4,0.7,9.2,2.1c1.4,0.7,2.7,1.5,3.9,2.5c1.2,1,2.3,2,3.4,3.3c1,1.2,1.9,2.5,2.7,3.9c0.8,1.4,1.5,2.9,2,4.5c0,0,0,0,0,0.1
	c3.7,10.4,0.8,20.6-2,30.6c-0.3,1-0.5,1.9-0.7,2.6c-0.1,0.5-0.7,0.8-1.2,0.7l0,0l-10.9-2.5c-0.5-0.1-0.9-0.6-0.7-1.1
	C343.5,127.2,343.5,127.1,343.5,127.1L343.5,127.1z M346.2,124.8c-0.2,0.7-0.4,1.4-0.6,2l9,2c0.2-0.6,0.3-1.2,0.5-1.7
	c2.7-9.7,5.5-19.7,2-29.5c0,0,0,0,0,0c-0.5-1.5-1.2-2.9-1.9-4.2c-0.7-1.3-1.6-2.5-2.5-3.6c-0.9-1.1-2-2.1-3.1-3
	c-1.1-0.9-2.3-1.6-3.6-2.3c-2.6-1.3-5.3-1.9-8.3-1.9c-1.5,0-3,0.2-4.4,0.5c-1.4,0.3-2.7,0.8-3.9,1.4c-1.2,0.6-2.4,1.3-3.5,2.2
	c-1.1,0.9-2.1,1.8-3,2.9l0,0c-0.9,1.1-1.7,2.3-2.4,3.6c-0.7,1.3-1.3,2.7-1.8,4.2c-0.5,1.5-0.9,3.1-1.1,4.7c-0.2,1.6-0.4,3.3-0.4,5.1
	c0,2,0.1,4,0.3,6c0.2,2,0.5,3.9,0.8,5.9c0.4,1.9,0.7,3.6,1.2,5.2c0.4,1.3,0.8,2.6,1.2,4l9-2c-0.2-0.5-0.3-1-0.5-1.4
	c-0.2-0.8-0.4-1.7-0.5-2.6h0c0-0.3,0.1-0.6,0.4-0.9c0.7-0.5,1.4-0.9,2.2-1.4c0.7-0.4,1.5-0.9,2.3-1.3v0l0,0c0.8-0.4,1.6-0.8,2.4-1.2
	c0.8-0.4,1.6-0.7,2.4-1c0.8-0.3,1.6-0.6,2.4-0.9c0.8-0.3,1.6-0.5,2.4-0.8c0.8-0.2,1.5-0.4,2.3-0.6c0.8-0.2,1.5-0.3,2.2-0.4v0
	c0.1,0,0.2,0,0.4,0c0.5,0.1,0.9,0.6,0.8,1.1C348.1,118.3,347.2,121.5,346.2,124.8L346.2,124.8z M347.2,103.1
	c-0.1-0.5-0.2-0.9-0.3-1.4c-0.2-0.7-0.5-1.4-0.8-2.1c-0.3-0.7-0.6-1.3-1-1.9c-0.4-0.6-0.7-1.1-1.2-1.6c-0.4-0.5-0.9-0.9-1.3-1.3
	c-0.5-0.4-1-0.7-1.5-1c-0.5-0.3-1.1-0.5-1.6-0.6c-0.5-0.1-1.1-0.2-1.7-0.2c-0.7,0-1.4,0.1-2,0.3c-0.6,0.2-1.2,0.4-1.8,0.8
	c-0.6,0.4-1.1,0.8-1.6,1.2c-0.5,0.5-0.9,1-1.3,1.6c-0.4,0.6-0.8,1.3-1.1,2.1c-0.3,0.8-0.6,1.6-0.8,2.4c-0.2,0.9-0.4,1.8-0.5,2.7
	c-0.1,0.9-0.2,1.9-0.2,2.9c0,0.8,0,1.5,0,2.1c0,0.1,0,0.2,0,0.3c0.3-0.2,0.6-0.3,0.9-0.5c0.8-0.5,1.7-0.9,2.6-1.3
	c0.9-0.4,1.9-0.8,2.8-1.2c0.9-0.4,1.9-0.7,2.8-1c0.9-0.3,1.9-0.6,2.8-0.9c0.9-0.3,1.8-0.5,2.7-0.8c0.9-0.2,1.8-0.4,2.6-0.6
	C346.3,103.2,346.7,103.1,347.2,103.1L347.2,103.1z M348.8,101.2c0.2,0.8,0.4,1.7,0.5,2.5h0l0,0c0.1,0.5-0.3,1-0.9,1.1
	c-0.7,0.1-1.4,0.2-2.2,0.4c-0.8,0.2-1.6,0.3-2.5,0.6c-0.9,0.2-1.8,0.5-2.7,0.7c-0.9,0.3-1.8,0.5-2.7,0.9c-0.9,0.3-1.8,0.6-2.7,1
	c-0.9,0.4-1.8,0.7-2.7,1.1c-0.9,0.4-1.7,0.8-2.5,1.2c-0.8,0.4-1.5,0.8-2.1,1.3c-0.1,0.1-0.3,0.2-0.5,0.2c-0.5,0.1-1-0.3-1.1-0.8
	c-0.1-0.6-0.1-1.3-0.2-2c0-0.7-0.1-1.5-0.1-2.2c0-1.1,0.1-2.1,0.2-3.2c0.1-1,0.3-2,0.6-3c0.2-1,0.5-1.9,0.9-2.7
	c0.4-0.8,0.8-1.6,1.2-2.3c0.5-0.7,1-1.4,1.6-2c0.6-0.6,1.2-1.1,1.9-1.5c0.7-0.4,1.5-0.8,2.3-1c0.8-0.2,1.7-0.3,2.5-0.3
	c0.7,0,1.5,0.1,2.2,0.3c0.7,0.2,1.4,0.4,2.1,0.8c0.7,0.3,1.3,0.7,1.9,1.2c0.6,0.4,1.1,0.9,1.6,1.5c0.5,0.6,1,1.2,1.4,1.8
	c0.4,0.7,0.8,1.4,1.1,2.1C348.2,99.6,348.5,100.4,348.8,101.2L348.8,101.2z"/>
<path class="st1" d="M183.5,92.6l-8.5-0.5c0.3,12.4,0.4,24.8,0.4,37.2h-12c1.2-17.8,1.7-33.4-0.4-47.8c0.5,0-1.4,0,1.4,0
	c1.5,0,3.1,0,4.8,0c1.7,0,3.3,0,4.8,0c3.8,0.1,6.4,0,10.2,0C183.9,85.3,183.7,89,183.5,92.6L183.5,92.6z"/>
<path class="st2" d="M183.4,93.6l-7.4-0.4c0.2,5.8,0.2,11.7,0.3,17.6c0,6.7,0.1,12.7,0.1,18.6c0,0.5-0.4,1-1,1h-12c-0.6,0-1-0.4-1-1
	c0,0,0-0.1,0-0.1c0.6-8.9,1-17.2,1-25.1c0-6.2-0.2-12.2-0.9-18c-0.1-1.1-0.3-2.2-0.4-3.3c-0.1-0.4-0.4-1-0.4-1.4
	c0-0.7,0.6-0.9,1.1-0.9c0,0,0,0,0,0v0c0,0,0,0,0,0c1.3,0.1,1.7,0,3.7,0.1c0.4,0,1.3,0,2.4,0c0.5,0,1.3,0,2.5,0c0.8,0,1.6,0,2.4,0
	c3,0,5.2,0,7.8,0c2.2,0,0.4,0,2.4,0c0.6,0,1,0.4,1,1c0,0,0,0.1,0,0.1l-0.1,0.8c-0.2,3.4-0.4,6.7-0.7,10.1
	C184.4,93.2,184,93.6,183.4,93.6L183.4,93.6L183.4,93.6z M175,91.2l7.5,0.4c0.2-3,0.4-6,0.6-9c-2.2,0-0.8,0-1.3,0
	c-2.6,0-4.9,0-7.8,0c-0.8,0-1.6,0-2.4,0c-0.5,0-1.3,0-2.5,0c-0.5,0-1.3,0-2.5,0c-0.8,0-1.6,0-2.4,0c-0.1,0-0.2,0-0.3,0
	c0.9,6.9,1.3,14.1,1.3,21.7c0,7.7-0.4,15.7-1,24.2h10c0-6.1,0-12.2,0-17.6c0-6.2-0.1-12.3-0.3-18.5c0,0,0-0.1,0-0.1
	C174,91.6,174.5,91.2,175,91.2L175,91.2z"/>
<path class="st1" d="M69.4,81.5c0,1.1,0.1,3.8,0.2,6.9c0.1,3.1,0.1,7.2,0.1,12.4c0,3.5,0,6.7-0.1,9.5c-0.1,2.8-0.4,4.7-0.6,7
	c-0.1,2.3-0.3,4.4-0.5,6.3c-0.2,1.9-0.4,3.7-0.7,5.4l11.3,0.4c0.8-3.7,1.3-7.3,1.6-10.9c0.2-3.6,0.5-6.4,0.5-10c0-0.6,0-1.2,0-1.7
	c0-0.5,0-1.1-0.1-1.7c1.1,2.1,2.5,5.3,4.4,9.5c1.8,4.1,3.9,8.6,6.5,14.8c2.6-6.3,5.1-10.7,6.9-14.8c1.9-4.2,3.3-7.4,4.4-9.5
	c-0.1,0.6-0.1,1.2-0.1,1.7c0,0.5,0,1.1,0,1.7c0,3.6-0.1,6.4,0.1,10c0.2,3.6,0.7,7.2,1.6,10.9l11.3-0.4c-0.2-1.7-0.5-3.5-0.7-5.4
	c-0.2-1.9-0.4-4-0.5-6.3c-0.1-2.3-0.1-4.2-0.2-7c-0.1-2.8-0.1-6-0.1-9.5c0-5.1,0-9.2,0.1-12.4c0.1-3.1,0.2-5.8,0.2-6.9l-10.1-1.3
	c-2.5,4.9-4.9,10.3-7.2,14.9c-1.8,3.7-3.7,7.3-5.5,10.8c-1.8-3.5-3.7-7.1-5.5-10.8c-2.3-4.6-4.7-8.6-7.2-13.6L69.4,81.5L69.4,81.5z"
	/>
<path class="st2" d="M70.4,82.5c0,0.8,0.1,1.8,0.1,3.1c0,0.9,0.1,1.8,0.1,2.8c0,1.5,0.1,3.4,0.1,5.4c0,2.3,0,4.6,0,6.9
	c0,1.6,0,3.3,0,5c0,1.6-0.1,3.1-0.1,4.5c-0.1,1.7-0.2,3-0.3,4.3c-0.1,0.9-0.2,1.7-0.2,2.7c-0.1,1.2-0.2,2.3-0.2,3.3
	c-0.1,1-0.2,2-0.3,3c-0.1,1-0.2,2-0.3,2.8c-0.1,0.5-0.1,1-0.2,1.6l9.4,0.3c0.3-1.6,0.6-3.1,0.8-4.7c0.3-1.8,0.4-3.6,0.5-5.3
	c0.1-1.1,0.1-2,0.2-2.9c0.2-2.3,0.3-4.5,0.3-7v-1.7c0-0.3,0-0.5,0-0.8c0-0.3-0.1-0.5-0.1-0.8c-0.1-0.5,0.3-1,0.8-1.1
	c0.5-0.1,0.9,0.2,1.1,0.6c0.6,1.1,1.2,2.4,1.9,3.9c0.7,1.5,1.5,3.3,2.5,5.5c0,0.1,0.5,1.1,1,2.3c1.3,3,2.8,6.3,4.6,10.4
	c1.3-2.9,2.5-5.4,3.6-7.6c0.9-1.8,1.7-3.5,2.4-5.1c1-2.2,1.8-4.1,2.5-5.5c0.7-1.5,1.4-2.9,1.9-4c0.2-0.5,0.8-0.7,1.3-0.4
	c0.4,0.2,0.6,0.6,0.6,1h0c0,0.3-0.1,0.5-0.1,0.8c0,0.3,0,0.5,0,0.8v1.7c0,0.2,0,1.4,0,2.4c0,2.5,0,4.8,0.1,7.5
	c0.1,1.8,0.3,3.5,0.5,5.3c0.2,1.5,0.5,3.1,0.8,4.7l9.4-0.3c-0.1-0.6-0.1-1.1-0.2-1.6c-0.1-0.8-0.2-1.8-0.3-2.8c-0.1-1-0.2-2-0.3-3
	c-0.1-1-0.2-2.1-0.2-3.3c-0.1-1.3-0.1-2.5-0.1-3.8c0-1,0-2-0.1-3.2c0-1.4-0.1-2.9-0.1-4.5c0-1.8,0-3.4,0-5c0-2.3,0-4.7,0-6.9
	c0-2.1,0.1-3.9,0.1-5.4c0-1,0.1-2,0.1-2.9c0-1.3,0.1-2.4,0.1-3.2l-8.5-1.1c-1.2,2.4-2.4,5-3.6,7.5c-1.1,2.3-2.2,4.6-3.3,6.8
	c-0.9,1.8-1.8,3.6-2.7,5.4c-0.8,1.6-1.7,3.4-2.7,5.4c-0.2,0.5-0.8,0.7-1.3,0.4c-0.2-0.1-0.4-0.3-0.5-0.4c-1-1.9-1.9-3.7-2.7-5.4
	c-0.9-1.8-1.8-3.6-2.7-5.4c-1.2-2.4-2.4-4.5-3.6-6.8c-1.1-2-2.2-4.1-3.4-6.3L70.4,82.5L70.4,82.5z M68.5,85.6
	c-0.1-1.8-0.1-3.3-0.1-4h0c0,0,0,0,0,0c0-0.5,0.5-0.9,1-0.9l10.1,0.1c0.4,0,0.8,0.2,0.9,0.5c1.2,2.5,2.4,4.6,3.6,6.7
	c1.2,2.3,2.5,4.5,3.6,6.8c0.9,1.8,1.8,3.6,2.7,5.4c0.6,1.3,1.3,2.5,1.8,3.6c0.6-1.1,1.2-2.3,1.8-3.6c0.9-1.8,1.8-3.6,2.7-5.4
	c1.1-2.1,2.1-4.4,3.3-6.8c1.3-2.7,2.6-5.5,4-8.2l0,0c0.2-0.4,0.6-0.6,1-0.5l10.1,1.3l0,0c0.5,0.1,0.9,0.5,0.9,1c0,0.8-0.1,2.2-0.1,4
	c0,0.9-0.1,1.8-0.1,2.9c0,1.6-0.1,3.4-0.1,5.4c0,1.8,0,4.1,0,6.9c0,1.9,0,3.6,0,5c0,1.6,0.1,3.1,0.1,4.5c0,1.2,0.1,2.3,0.1,3.3
	c0,1.2,0,2.4,0.1,3.7c0.1,1.1,0.2,2.2,0.2,3.3c0.1,1.1,0.2,2.1,0.3,3c0.1,0.9,0.2,1.8,0.3,2.8c0.1,1,0.2,1.8,0.3,2.6h0
	c0,0,0,0.1,0,0.1c0,0.5-0.4,1-1,1l-11.3,0.4c-0.5,0-1-0.3-1.1-0.8c-0.4-1.9-0.7-3.7-1-5.6c-0.3-1.8-0.4-3.7-0.6-5.5
	c-0.2-2.7-0.2-5.1-0.1-7.6c0-0.3,0-0.6,0-1.2c-0.7,1.6-1.5,3.3-2.3,5.2c-0.7,1.7-1.5,3.3-2.4,5.1c-1.4,2.8-2.9,5.9-4.5,9.7
	c-0.1,0.2-0.3,0.4-0.6,0.5c-0.5,0.2-1.1,0-1.3-0.5c-2.1-5.1-3.9-9-5.5-12.5c-0.2-0.4-0.3-0.7-1-2.3c-0.8-1.9-1.6-3.6-2.4-5.2
	c0,2.1-0.2,3.9-0.3,5.9c-0.1,1-0.1,2-0.2,2.9c-0.1,1.8-0.3,3.6-0.6,5.5c-0.3,1.8-0.6,3.7-1,5.6h0c-0.1,0.4-0.5,0.8-1,0.8l-11.3-0.4
	c0,0-0.1,0-0.1,0c-0.5-0.1-0.9-0.5-0.9-1.1c0.1-0.8,0.2-1.6,0.3-2.6c0.1-1,0.2-1.9,0.3-2.8c0.1-0.9,0.2-1.9,0.3-3
	c0.1-1.1,0.2-2.2,0.2-3.3c0.1-0.9,0.1-1.8,0.2-2.7c0.1-1.3,0.3-2.6,0.3-4.2c0-1.4,0.1-2.9,0.1-4.5c0-1.4,0-3.1,0-5
	c0-2.8,0-5.1,0-6.9c0-2-0.1-3.8-0.1-5.4C68.6,87.4,68.5,86.4,68.5,85.6L68.5,85.6z"/>
<path class="st3" d="M345,68.8c-3.6,2.8-11.6,12.2-11.5,12.5c1.8,5.9,23.9,21,31.7,17.1c0.5,0.1,3.8-7.5,5.4-10.8
	C363.5,79.8,354.5,73.7,345,68.8z"/>
<path class="st3" d="M368.8,99c-2.4,2.1-7,6-7.1,6.2c1.6,0.9,3.2,1.8,4.8,2.7c0.1-1.2,2.3-5.3,3.6-8c0.7,0.1,1.3-0.2,1.7-0.7
	c0.3-0.5,0.3-1,0-1.5c2-5,1.9-6.4,3.3-9.4c3.1-0.8,9-4.1,8.9-4.2c-15.5-11.8-18.1-15.2-32.5-21.3c-6.6-0.8-17.8-2.1-16.9-1.6
	c3.8,2.3,7.5,4.6,10.9,6.8c1,0.5,2,1,2.5,1.3c1.3,0.7,2.5,1.4,3.7,2.1c4.1,2.4,7.9,5,11.3,7.8c3,2.4,6.2,5.4,8.7,8.1
	c0.4,0.3,0.7,0.5,1,0.7c-1.3,3.6-1.5,7-2,8.9c-0.7-0.2-1.5,0-1.9,0.7C368.5,98,368.5,98.6,368.8,99L368.8,99z"/>
<path class="st2" d="M198.5,23.3c0.5,0,0.8,0.3,0.8,1v11.2c0,0.6-0.3,0.9-0.8,0.9c-0.5,0-0.8-0.3-0.8-0.9V24.7h-4.4V28
	c0,1.5-0.2,2.9-0.5,4.3c-0.4,1.4-0.9,2.5-1.6,3.4c-0.3,0.4-0.7,0.6-1,0.6c-0.5,0-0.8-0.2-0.8-0.6c0-0.3,0.2-0.7,0.5-1
	c1.3-1.2,1.9-3.6,1.9-7v-3.5c0-0.6,0.3-0.9,0.8-0.9L198.5,23.3L198.5,23.3z M202.2,26.5c0.5,0,0.8,0.3,0.8,0.9v6.1l4-6
	c0.4-0.7,0.8-1,1.2-1c0.5,0,0.7,0.3,0.7,0.9v8.2c0,0.5-0.3,0.8-0.8,0.8c-0.5,0-0.8-0.3-0.8-0.8v-6.2l-3.8,5.6
	c-0.6,0.9-1.1,1.4-1.5,1.4c-0.5,0-0.7-0.3-0.7-1v-8C201.4,26.7,201.7,26.5,202.2,26.5L202.2,26.5z M217,34.9v-7.6
	c0-0.5,0.3-0.8,0.8-0.8c0.5,0,0.8,0.3,0.8,0.8v7.6h0.5c0.5,0,0.7,0.2,0.7,0.7v2.8c0,0.5-0.2,0.7-0.7,0.7c-0.5,0-0.7-0.2-0.7-0.7
	v-2.2h-6.5c-0.5,0-0.8-0.3-0.8-0.8v-8.1c0-0.5,0.3-0.8,0.8-0.8c0.5,0,0.8,0.3,0.8,0.8v7.6H217L217,34.9z M224.8,26.5
	c1.2,0,2.2,0.5,3.1,1.4c0.8,0.9,1.2,2,1.2,3.4c0,0.5-0.3,0.8-0.9,0.8h-6c0,0.9,0.3,1.6,0.8,2.2c0.5,0.5,1.2,0.8,2.1,0.8
	c0.4,0,0.8-0.1,1.2-0.2c0.3-0.1,0.6-0.3,0.9-0.5c0,0,0.1-0.1,0.2-0.1l0.1-0.1c0,0,0,0,0.1-0.1l0.2-0.1c0.2-0.1,0.3-0.2,0.5-0.2
	c0.4,0,0.6,0.2,0.6,0.7c0,0.4-0.4,0.9-1.2,1.3c-0.8,0.4-1.7,0.7-2.6,0.7c-1.4,0-2.5-0.5-3.3-1.4c-0.8-0.9-1.2-2.1-1.2-3.6
	c0-1.3,0.4-2.4,1.2-3.3C222.5,27,223.5,26.5,224.8,26.5L224.8,26.5z M227.4,30.8c0-0.9-0.2-1.6-0.7-2.1c-0.5-0.6-1.1-0.9-1.9-0.9
	c-0.8,0-1.5,0.3-2,0.9c-0.5,0.5-0.7,1.3-0.7,2.1H227.4z M236.5,30.4v-3c0-0.6,0.3-0.9,0.8-0.9c0.5,0,0.8,0.3,0.8,0.9v8.2
	c0,0.5-0.3,0.8-0.8,0.8c-0.5,0-0.8-0.3-0.8-0.9v-3.7h-4.3v3.7c0,0.6-0.3,0.9-0.8,0.9c-0.5,0-0.7-0.3-0.7-0.8v-8.2
	c0-0.6,0.3-0.9,0.8-0.9c0.5,0,0.8,0.3,0.8,0.9v3L236.5,30.4L236.5,30.4z M243.8,26.5c0.9,0,1.7,0.2,2.3,0.6c0.6,0.4,0.9,1.1,0.9,1.8
	c0,1-0.6,1.7-1.7,2.1c0.6,0.1,1,0.3,1.4,0.7c0.4,0.4,0.6,0.9,0.6,1.6c0,0.8-0.3,1.5-1,2.1c-0.7,0.6-1.7,0.9-2.9,0.9
	c-0.8,0-1.6-0.2-2.4-0.6c-0.9-0.4-1.3-0.8-1.3-1.3c0-0.5,0.2-0.7,0.7-0.7c0.2,0,0.4,0.1,0.6,0.2l0.4,0.3c0.1,0,0.1,0.1,0.2,0.1
	c0.3,0.2,0.5,0.3,0.7,0.4c0.3,0.1,0.7,0.2,1,0.2c0.6,0,1.1-0.1,1.5-0.3c0.5-0.3,0.8-0.8,0.8-1.5c0-0.5-0.2-0.9-0.7-1.1
	c-0.4-0.2-0.9-0.3-1.6-0.3h-0.9c-0.4,0-0.6-0.2-0.6-0.6c0-0.5,0.2-0.7,0.7-0.7h0.9c0.6,0,1-0.1,1.3-0.3c0.4-0.2,0.6-0.6,0.6-1.1
	c0-0.5-0.2-0.8-0.5-1c-0.3-0.1-0.7-0.2-1.3-0.2c-0.4,0-0.8,0-1.1,0.1c-0.2,0.1-0.5,0.2-0.7,0.3c0,0-0.1,0.1-0.1,0.1
	c0,0-0.1,0-0.1,0.1l-0.2,0.1c-0.2,0.1-0.3,0.1-0.5,0.1c-0.5,0-0.8-0.2-0.8-0.7c0-0.4,0.4-0.8,1.2-1.1
	C242.1,26.6,242.9,26.5,243.8,26.5L243.8,26.5z M249.9,26.5c0.5,0,0.8,0.3,0.8,0.9v6.1l4-6c0.4-0.7,0.8-1,1.2-1
	c0.5,0,0.7,0.3,0.7,0.9v8.2c0,0.5-0.3,0.8-0.8,0.8c-0.5,0-0.8-0.3-0.8-0.8v-6.2l-3.8,5.6c-0.6,0.9-1.1,1.4-1.5,1.4
	c-0.5,0-0.7-0.3-0.7-1v-8C249.1,26.7,249.4,26.5,249.9,26.5L249.9,26.5z M262.7,32l-2.9,3.9c-0.2,0.3-0.4,0.4-0.7,0.4
	c-0.5,0-0.7-0.2-0.7-0.7c0-0.2,0.1-0.5,0.3-0.7l2.4-3c-0.7-0.1-1.3-0.3-1.8-0.8c-0.5-0.4-0.7-1-0.7-1.7c0-1,0.3-1.7,1-2.2
	c0.6-0.4,1.3-0.7,2.2-0.7h2.9c0.7,0,1,0.3,1,1v8.1c0,0.5-0.3,0.8-0.8,0.8c-0.5,0-0.8-0.3-0.8-0.8V32L262.7,32L262.7,32z M264.2,27.8
	h-2c-1.3,0-2,0.5-2,1.5c0,0.5,0.2,0.9,0.6,1.2c0.3,0.2,0.8,0.3,1.3,0.3h2V27.8z M272.9,23.2c0.4,0,0.7,0.2,1,0.6l6.7,9.7h0v-9.4
	c0-0.6,0.3-0.9,0.8-0.9c0.5,0,0.8,0.3,0.8,0.9v11.5c0,0.5-0.2,0.8-0.7,0.8c-0.4,0-0.7-0.2-0.9-0.5l-6.8-9.7h0v9.4
	c0,0.5-0.3,0.8-0.8,0.8c-0.5,0-0.8-0.3-0.8-0.8V24.1C272.2,23.5,272.4,23.2,272.9,23.2L272.9,23.2z M286.4,26.4
	c-0.5,0-0.8,0.2-1.1,0.6c-0.3,0.4-0.4,0.8-0.4,1.3c0,0.5,0.1,0.9,0.4,1.3c0.3,0.4,0.6,0.6,1.1,0.6c0.4,0,0.8-0.2,1.1-0.6
	c0.3-0.4,0.4-0.8,0.4-1.3c0-0.5-0.1-0.9-0.4-1.3C287.2,26.6,286.8,26.4,286.4,26.4L286.4,26.4z M286.4,25.2c0.8,0,1.5,0.3,2,0.9
	c0.5,0.6,0.8,1.3,0.8,2.1c0,0.8-0.2,1.5-0.7,2.1c-0.5,0.6-1.2,0.9-2,0.9c-0.8,0-1.5-0.3-2-0.9c-0.5-0.6-0.8-1.3-0.8-2.1
	c0-0.8,0.2-1.5,0.7-2.1C284.9,25.5,285.5,25.2,286.4,25.2L286.4,25.2z M288.1,32.6c0.5,0,0.7,0.2,0.7,0.7c0,0.5-0.2,0.7-0.7,0.7
	h-3.6c-0.5,0-0.8-0.2-0.8-0.7c0-0.5,0.3-0.7,0.8-0.7L288.1,32.6L288.1,32.6z M291.1,24.6c-0.5,0-0.8-0.2-0.8-0.7
	c0-0.5,0.3-0.7,0.8-0.7h6.6c0.5,0,0.8,0.1,0.8,0.4c0,0.1-0.1,0.3-0.2,0.6l-5,11.4c-0.2,0.5-0.5,0.7-1,0.7c-0.4,0-0.6-0.2-0.6-0.6
	c0-0.2,0.1-0.4,0.2-0.6l4.7-10.5H291.1L291.1,24.6z M300.2,28.3c-0.5,0-0.7-0.3-0.7-1c0-1.2,0.4-2.2,1.2-2.9c0.8-0.7,1.7-1.1,3-1.1
	c1,0,1.8,0.3,2.4,1c0.7,0.7,1,1.4,1,2.4c0,0.9-0.3,1.8-1,2.6l-4.3,5.7h4.9c0.4,0,0.7,0.2,0.7,0.7c0,0.4-0.2,0.7-0.7,0.7h-6.3
	c-0.5,0-0.8-0.2-0.8-0.6c0-0.2,0.1-0.4,0.2-0.6l4.9-6.6c0.4-0.6,0.7-1.2,0.7-1.9c0-0.6-0.2-1-0.6-1.4c-0.4-0.4-0.9-0.6-1.4-0.6
	c-0.7,0-1.2,0.3-1.7,0.8c-0.4,0.5-0.6,1.1-0.6,1.8C301,27.9,300.7,28.3,300.2,28.3L300.2,28.3z M313.1,23.2c0.7,0,1.4,0.2,2,0.6
	c0.5,0.4,0.9,0.9,1.3,1.6c0.3,0.6,0.6,1.3,0.7,2.1c0.2,0.7,0.2,1.4,0.2,2.1c0,0.8-0.1,1.6-0.2,2.3c-0.2,0.8-0.4,1.6-0.7,2.2
	c-0.3,0.7-0.8,1.2-1.3,1.6c-0.6,0.4-1.2,0.6-2,0.6c-0.8,0-1.5-0.2-2.1-0.7c-0.5-0.4-1-0.9-1.3-1.7c-0.3-0.6-0.5-1.4-0.7-2.2
	c-0.1-0.7-0.2-1.5-0.2-2.3c0-0.7,0.1-1.4,0.2-2.1c0.2-0.8,0.4-1.5,0.7-2.1c0.4-0.7,0.8-1.2,1.3-1.6
	C311.7,23.4,312.3,23.2,313.1,23.2L313.1,23.2z M313,24.6c-0.5,0-0.9,0.2-1.2,0.5c-0.3,0.3-0.6,0.7-0.8,1.3c-0.2,0.5-0.3,1-0.4,1.6
	c-0.1,0.5-0.1,1.1-0.1,1.6c0,0.6,0,1.1,0.1,1.6c0.1,0.7,0.2,1.3,0.4,1.8c0.2,0.6,0.5,1.1,0.8,1.4c0.4,0.4,0.8,0.6,1.3,0.6
	c0.5,0,0.9-0.2,1.2-0.5c0.3-0.3,0.6-0.7,0.8-1.3c0.2-0.5,0.3-1,0.4-1.6c0.1-0.5,0.1-1.1,0.1-1.6c0-0.6,0-1.2-0.1-1.8
	c-0.1-0.7-0.2-1.2-0.4-1.7c-0.2-0.6-0.5-1-0.8-1.3C314,24.8,313.5,24.6,313,24.6L313,24.6z M322.7,23.2c0.7,0,1.4,0.2,2,0.6
	c0.5,0.4,0.9,0.9,1.3,1.6c0.3,0.6,0.6,1.3,0.7,2.1c0.2,0.7,0.2,1.4,0.2,2.1c0,0.8-0.1,1.6-0.2,2.3c-0.2,0.8-0.4,1.6-0.7,2.2
	c-0.3,0.7-0.8,1.2-1.3,1.6c-0.6,0.4-1.2,0.6-2,0.6c-0.8,0-1.5-0.2-2.1-0.7c-0.5-0.4-1-0.9-1.3-1.7c-0.3-0.6-0.5-1.4-0.7-2.2
	c-0.1-0.7-0.2-1.5-0.2-2.3c0-0.7,0.1-1.4,0.2-2.1c0.2-0.8,0.4-1.5,0.7-2.1c0.4-0.7,0.8-1.2,1.3-1.6C321.3,23.4,322,23.2,322.7,23.2
	L322.7,23.2z M322.7,24.6c-0.5,0-0.9,0.2-1.2,0.5c-0.3,0.3-0.6,0.7-0.8,1.3c-0.2,0.5-0.3,1-0.4,1.6c-0.1,0.5-0.1,1.1-0.1,1.6
	c0,0.6,0,1.1,0.1,1.6c0.1,0.7,0.2,1.3,0.4,1.8c0.2,0.6,0.5,1.1,0.8,1.4c0.4,0.4,0.8,0.6,1.3,0.6c0.5,0,0.9-0.2,1.2-0.5
	c0.3-0.3,0.6-0.7,0.8-1.3c0.2-0.5,0.3-1,0.4-1.6c0.1-0.5,0.1-1.1,0.1-1.6c0-0.6,0-1.2-0.1-1.8c-0.1-0.7-0.2-1.2-0.4-1.7
	c-0.2-0.6-0.5-1-0.8-1.3C323.6,24.8,323.2,24.6,322.7,24.6L322.7,24.6z M328.8,24.6c-0.5,0-0.8-0.2-0.8-0.7c0-0.5,0.3-0.7,0.8-0.7
	h6.6c0.5,0,0.8,0.1,0.8,0.4c0,0.1-0.1,0.3-0.2,0.6l-5,11.4c-0.2,0.5-0.5,0.7-1,0.7c-0.4,0-0.6-0.2-0.6-0.6c0-0.2,0.1-0.4,0.2-0.6
	l4.7-10.5H328.8z"/>
<path class="st2" d="M194.4,46c-0.9,0-1.6,0.4-2,1.1c-0.4,0.7-0.6,1.5-0.6,2.4c0,0.9,0.2,1.7,0.6,2.4c0.5,0.8,1.2,1.1,2,1.1
	c0.9,0,1.6-0.4,2.1-1.1c0.4-0.6,0.6-1.4,0.6-2.4c0-1-0.2-1.8-0.6-2.5C195.9,46.3,195.2,46,194.4,46L194.4,46z M194.4,44.6
	c1.3,0,2.3,0.5,3.1,1.5c0.7,0.9,1.1,2.1,1.1,3.4c0,1.4-0.4,2.5-1.1,3.4c-0.8,1-1.8,1.5-3.1,1.5c-1.3,0-2.3-0.5-3.1-1.5
	c-0.8-0.9-1.1-2.1-1.1-3.4c0-1.4,0.4-2.6,1.2-3.5C192.1,45.1,193.1,44.6,194.4,44.6z M205.5,44.7c0.5,0,0.7,0.2,0.7,0.7
	c0,0.4-0.2,0.7-0.7,0.7h-1.9v7.6c0,0.5-0.3,0.8-0.8,0.8c-0.5,0-0.8-0.3-0.8-0.8v-7.6h-1.9c-0.4,0-0.7-0.2-0.7-0.7
	c0-0.5,0.2-0.7,0.7-0.7L205.5,44.7L205.5,44.7z M215.7,41.3c0.7,0,1.4,0.2,2,0.6c0.5,0.4,0.9,0.9,1.3,1.6c0.3,0.6,0.6,1.3,0.7,2.1
	c0.2,0.7,0.2,1.4,0.2,2.1c0,0.8-0.1,1.6-0.2,2.3c-0.2,0.8-0.4,1.6-0.7,2.2c-0.3,0.7-0.8,1.2-1.3,1.6c-0.6,0.4-1.2,0.6-2,0.6
	c-0.8,0-1.5-0.2-2.1-0.7c-0.5-0.4-1-0.9-1.3-1.7c-0.3-0.6-0.5-1.4-0.7-2.2c-0.1-0.7-0.2-1.5-0.2-2.3c0-0.7,0.1-1.4,0.2-2.1
	c0.2-0.8,0.4-1.5,0.7-2.1c0.4-0.7,0.8-1.2,1.3-1.6C214.3,41.5,214.9,41.3,215.7,41.3L215.7,41.3z M215.6,42.7
	c-0.5,0-0.9,0.2-1.2,0.5c-0.3,0.3-0.6,0.7-0.8,1.3c-0.2,0.5-0.3,1-0.4,1.6c-0.1,0.5-0.1,1.1-0.1,1.6c0,0.6,0,1.1,0.1,1.6
	c0.1,0.7,0.2,1.3,0.4,1.8c0.2,0.6,0.5,1.1,0.8,1.4c0.4,0.4,0.8,0.6,1.3,0.6c0.5,0,0.9-0.2,1.2-0.5c0.3-0.3,0.6-0.7,0.8-1.3
	c0.2-0.5,0.3-1,0.4-1.6c0.1-0.5,0.1-1.1,0.1-1.6c0-0.6,0-1.2-0.1-1.8c-0.1-0.7-0.2-1.2-0.4-1.7c-0.2-0.6-0.5-1-0.8-1.3
	C216.6,42.9,216.1,42.7,215.6,42.7L215.6,42.7z M221.8,42.8c-0.5,0-0.7-0.2-0.7-0.7c0-0.5,0.3-0.7,0.8-0.7h2.7
	c0.3,0,0.5,0.2,0.5,0.5v11.6c0,0.6-0.3,0.9-0.8,0.9c-0.5,0-0.8-0.3-0.8-0.9V42.8H221.8z M229.1,52.6c0.6,0,0.9,0.3,0.9,0.9
	c0,0.6-0.3,0.9-0.9,0.9c-0.6,0-0.9-0.3-0.9-0.9C228.2,52.9,228.5,52.6,229.1,52.6z M236,41.3c0.7,0,1.4,0.2,2,0.6
	c0.5,0.4,0.9,0.9,1.3,1.6c0.3,0.6,0.6,1.3,0.7,2.1c0.2,0.7,0.2,1.4,0.2,2.1c0,0.8-0.1,1.6-0.2,2.3c-0.2,0.8-0.4,1.6-0.7,2.2
	c-0.4,0.7-0.8,1.2-1.3,1.6c-0.6,0.4-1.2,0.6-2,0.6c-0.8,0-1.5-0.2-2.1-0.7c-0.5-0.4-1-0.9-1.3-1.7c-0.3-0.6-0.5-1.4-0.7-2.2
	c-0.1-0.7-0.2-1.5-0.2-2.3c0-0.7,0.1-1.4,0.2-2.1c0.2-0.8,0.4-1.5,0.7-2.1c0.4-0.7,0.8-1.2,1.3-1.6C234.6,41.5,235.3,41.3,236,41.3
	L236,41.3z M236,42.7c-0.5,0-0.9,0.2-1.2,0.5c-0.3,0.3-0.6,0.7-0.8,1.3c-0.2,0.5-0.3,1-0.4,1.6c-0.1,0.5-0.1,1.1-0.1,1.6
	c0,0.6,0,1.1,0.1,1.6c0.1,0.7,0.2,1.3,0.4,1.8c0.2,0.6,0.5,1.1,0.8,1.4c0.4,0.4,0.8,0.6,1.3,0.6c0.5,0,0.9-0.2,1.2-0.5
	c0.3-0.3,0.6-0.7,0.8-1.3c0.2-0.5,0.3-1,0.4-1.6c0.1-0.5,0.1-1.1,0.1-1.6c0-0.6,0-1.2-0.1-1.8c-0.1-0.7-0.2-1.2-0.4-1.7
	c-0.2-0.6-0.5-1-0.8-1.3C236.9,42.9,236.5,42.7,236,42.7L236,42.7z M247,49.3c-0.6,0.3-1.2,0.5-2,0.5c-0.6,0-1.1-0.1-1.6-0.4
	c-0.4-0.3-0.7-0.6-1-1.1c-0.2-0.4-0.4-0.8-0.6-1.4c-0.1-0.5-0.2-0.9-0.2-1.4c0-1.2,0.4-2.2,1.1-3c0.7-0.8,1.7-1.2,2.9-1.2
	c1.2,0,2.1,0.5,2.8,1.4c0.7,0.9,1,2,1,3.2c0,0.8-0.1,1.6-0.4,2.4c-0.2,0.7-0.6,1.5-1,2.2c-0.8,1.4-1.9,2.6-3.2,3.6
	c-0.2,0.2-0.4,0.3-0.6,0.3c-0.4,0-0.6-0.2-0.6-0.7c0-0.2,0.2-0.4,0.6-0.8l0.5-0.5c0.2-0.2,0.4-0.4,0.5-0.6
	C246,51.1,246.6,50.2,247,49.3L247,49.3L247,49.3z M245.7,42.8c-0.7,0-1.3,0.3-1.7,0.8c-0.4,0.5-0.5,1.2-0.5,2
	c0,1.8,0.7,2.8,2.2,2.8c0.7,0,1.3-0.2,1.7-0.7c0.4-0.5,0.7-1.2,0.7-2.1c0-0.8-0.2-1.5-0.6-2C247,43.1,246.4,42.8,245.7,42.8
	L245.7,42.8z M252.7,52.6c0.6,0,0.9,0.3,0.9,0.9c0,0.6-0.3,0.9-0.9,0.9c-0.6,0-0.9-0.3-0.9-0.9C251.8,52.9,252.1,52.6,252.7,52.6z
	 M256.4,46.4c-0.5,0-0.7-0.3-0.7-1c0-1.2,0.4-2.2,1.2-2.9c0.8-0.8,1.7-1.1,3-1.1c1,0,1.8,0.3,2.4,1c0.7,0.7,1,1.4,1,2.4
	c0,0.9-0.3,1.8-1,2.6l-4.3,5.7h4.9c0.4,0,0.7,0.2,0.7,0.7c0,0.4-0.2,0.7-0.7,0.7h-6.3c-0.5,0-0.8-0.2-0.8-0.6c0-0.2,0.1-0.4,0.2-0.6
	l4.9-6.6c0.4-0.6,0.7-1.2,0.7-1.9c0-0.6-0.2-1.1-0.6-1.5c-0.4-0.4-0.9-0.6-1.4-0.6c-0.7,0-1.2,0.3-1.7,0.8c-0.4,0.5-0.6,1.1-0.6,1.8
	C257.2,46,257,46.4,256.4,46.4z M269.3,41.3c0.7,0,1.4,0.2,2,0.6c0.5,0.4,0.9,0.9,1.3,1.6c0.3,0.6,0.6,1.3,0.7,2.1
	c0.2,0.7,0.2,1.4,0.2,2.1c0,0.8-0.1,1.6-0.2,2.3c-0.2,0.8-0.4,1.6-0.7,2.2c-0.3,0.7-0.8,1.2-1.3,1.6c-0.6,0.4-1.2,0.6-2,0.6
	c-0.8,0-1.5-0.2-2.1-0.7c-0.5-0.4-1-0.9-1.3-1.7c-0.3-0.6-0.5-1.4-0.7-2.2c-0.1-0.7-0.2-1.5-0.2-2.3c0-0.7,0.1-1.4,0.2-2.1
	c0.2-0.8,0.4-1.5,0.7-2.1c0.4-0.7,0.8-1.2,1.3-1.6C267.9,41.5,268.6,41.3,269.3,41.3L269.3,41.3z M269.3,42.7
	c-0.5,0-0.9,0.2-1.2,0.5c-0.3,0.3-0.6,0.7-0.8,1.3c-0.2,0.5-0.3,1-0.4,1.6c-0.1,0.5-0.1,1.1-0.1,1.6c0,0.6,0,1.1,0.1,1.6
	c0.1,0.7,0.2,1.3,0.4,1.8c0.2,0.6,0.5,1.1,0.8,1.4c0.4,0.4,0.8,0.6,1.3,0.6c0.5,0,0.9-0.2,1.2-0.5c0.3-0.3,0.6-0.7,0.8-1.3
	c0.2-0.5,0.3-1,0.4-1.6c0.1-0.5,0.1-1.1,0.1-1.6c0-0.6,0-1.2-0.1-1.8c-0.1-0.7-0.2-1.2-0.4-1.7c-0.2-0.6-0.5-1-0.8-1.3
	C270.2,42.9,269.8,42.7,269.3,42.7L269.3,42.7z M275.5,42.8c-0.5,0-0.7-0.2-0.7-0.7c0-0.5,0.3-0.7,0.8-0.7h2.7
	c0.3,0,0.5,0.2,0.5,0.5v11.6c0,0.6-0.3,0.9-0.8,0.9c-0.5,0-0.8-0.3-0.8-0.9V42.8H275.5L275.5,42.8z M286.9,41.3
	c0.8,0,1.2,0.4,1.2,1.3v7h0.8c0.5,0,0.7,0.2,0.7,0.7c0,0.4-0.3,0.6-0.8,0.6h-0.8v2.6c0,0.6-0.3,0.9-0.8,0.9c-0.5,0-0.8-0.3-0.8-0.8
	V51h-5.1c-0.5,0-0.8-0.1-0.8-0.5c0-0.2,0.1-0.5,0.4-0.9l4.7-7.6C286,41.6,286.4,41.3,286.9,41.3L286.9,41.3z M286.5,43L286.5,43
	l-3.8,6.6h3.8V43z M296.2,45.4c0,0.4-0.2,0.7-0.6,0.7h-2.7v7.6c0,0.5-0.3,0.8-0.8,0.8c-0.5,0-0.7-0.3-0.7-0.8v-8.2
	c0-0.5,0.3-0.7,0.8-0.7h3.4C295.9,44.7,296.2,44.9,296.2,45.4L296.2,45.4z M298.7,52.6c0.6,0,0.9,0.3,0.9,0.9c0,0.6-0.3,0.9-0.9,0.9
	c-0.6,0-0.9-0.3-0.9-0.9C297.8,52.9,298.1,52.6,298.7,52.6z"/>
</svg>
