<svg width="217" height="108" viewBox="0 0 217 108" fill="none" xmlns="http://www.w3.org/2000/svg">
<path d="M20.4048 10.3759C21.8389 4.39466 27.3993 0.336319 33.533 0.79406L172.258 11.1466C177.103 11.5083 181.304 14.6369 183.039 19.1762L210.058 89.8868C213.306 98.3864 206.705 107.407 197.621 106.883L14.9682 96.3421C7.16816 95.8919 1.67411 88.4961 3.4958 80.8983L20.4048 10.3759Z" fill="#BED01C"/>
<path d="M31.7563 47.6865L30.6924 54.739L27.3943 54.2415L30.2576 35.2609L37.5187 36.3563C39.6392 36.6762 41.2376 37.4817 42.3139 38.7729C43.3989 40.0654 43.8043 41.6198 43.5303 43.4362C43.2498 45.296 42.4188 46.6506 41.0374 47.4999C39.6647 48.3506 37.8789 48.6101 35.6802 48.2784L31.7563 47.6865ZM32.1555 45.0401L36.1185 45.638C37.2917 45.815 38.2282 45.6762 38.9278 45.2218C39.6288 44.7587 40.0579 44.0057 40.2152 42.9628C40.3699 41.9373 40.1803 41.0731 39.6463 40.3704C39.1137 39.659 38.3012 39.212 37.2087 39.0294L33.1545 38.4178L32.1555 45.0401ZM50.1551 57.9416C48.1476 57.6388 46.6131 56.7629 45.5517 55.314C44.5004 53.8576 44.1333 52.0779 44.4506 49.9747L44.5096 49.5837C44.7219 48.1758 45.1808 46.9606 45.8861 45.9382C46.6014 44.9083 47.4967 44.159 48.5718 43.6901C49.6469 43.2212 50.7885 43.0778 51.9965 43.2601C53.9172 43.5498 55.3065 44.386 56.1646 45.7687C57.0313 47.1528 57.2955 48.9659 56.9573 51.2081L56.7646 52.4856L47.5481 51.0953C47.468 52.2743 47.7157 53.2538 48.2914 54.034C48.8757 54.8154 49.6849 55.2842 50.7191 55.4402C52.1705 55.6591 53.4409 55.2508 54.5304 54.2152L55.9923 56.1023C55.3003 56.8601 54.4452 57.4022 53.4271 57.7286C52.419 58.0476 51.3284 58.1186 50.1551 57.9416ZM51.6 45.8001C50.731 45.669 49.9811 45.867 49.3505 46.3941C48.7286 46.9225 48.2619 47.7187 47.9502 48.7827L53.986 49.6932L54.0213 49.4586C54.1118 48.3878 53.9499 47.5457 53.5358 46.9321C53.1231 46.3099 52.4778 45.9326 51.6 45.8001ZM69.4573 48.7739L63.3303 47.8497L61.588 59.3997L58.4333 58.9238L60.561 44.8187L69.8427 46.2189L69.4573 48.7739ZM80.4411 47.8176L83.5958 48.2935L81.468 62.3986L78.3133 61.9227L79.7331 52.5106L72.786 61.0889L69.6313 60.613L71.759 46.5079L74.9138 46.9838L73.494 56.3959L80.4411 47.8176ZM90.9746 61.5128C91.7655 61.6321 92.4564 61.5008 93.0473 61.1188C93.6382 60.7369 94.0022 60.2096 94.1392 59.5369L97.1245 59.9873C96.9573 60.8598 96.5596 61.6398 95.9315 62.3272C95.3047 63.0059 94.519 63.5007 93.5744 63.8115C92.6297 64.1224 91.649 64.2011 90.6322 64.0477C88.6594 63.7501 87.1914 62.8753 86.2283 61.4234C85.2651 59.9715 84.9533 58.1201 85.2929 55.8692L85.3421 55.5433C85.6659 53.3967 86.4984 51.7668 87.8396 50.6536C89.1821 49.5318 90.8441 49.1203 92.8256 49.4192C94.5029 49.6722 95.7933 50.3691 96.6967 51.5098C97.6102 52.6431 97.973 54.0089 97.7852 55.6071L94.8 55.1568C94.8871 54.3433 94.7093 53.6365 94.2665 53.0364C93.8324 52.4376 93.2156 52.0779 92.4161 51.9573C91.3906 51.8026 90.5433 52.057 89.8744 52.7205C89.2067 53.3753 88.7545 54.4582 88.5177 55.969L88.441 56.4775C88.2103 58.007 88.3116 59.1911 88.7451 60.0298C89.1885 60.8611 89.9317 61.3555 90.9746 61.5128ZM111.661 55.1004L107.085 54.4102L105.337 65.9993L102.169 65.5214L103.918 53.9323L99.3941 53.25L99.7736 50.734L112.041 52.5845L111.661 55.1004ZM125.425 61.9632C125.096 64.1446 124.338 65.8124 123.15 66.9665C121.964 68.112 120.537 68.5589 118.868 68.3072C117.321 68.0738 116.16 67.3786 115.383 66.2215L114.374 72.909L111.207 72.4311L114.152 52.9031L117.073 53.3436L116.987 54.7972C118.087 53.8077 119.437 53.4335 121.036 53.6748C122.756 53.9343 124.007 54.7807 124.786 56.2137C125.575 57.6394 125.798 59.4907 125.455 61.7677L125.425 61.9632ZM122.312 61.2136C122.524 59.8057 122.41 58.6463 121.97 57.7355C121.538 56.826 120.801 56.2925 119.758 56.1352C118.463 55.9399 117.452 56.3341 116.726 57.3178L115.782 63.5752C116.191 64.7567 117.047 65.4458 118.35 65.6425C119.359 65.7945 120.206 65.5091 120.893 64.7861C121.59 64.0557 122.063 62.8648 122.312 61.2136ZM135.503 70.5498C135.404 70.2594 135.349 69.8022 135.336 69.1781C134.17 70.0776 132.856 70.4172 131.396 70.197C129.98 69.9833 128.885 69.4048 128.111 68.4615C127.338 67.5183 127.041 66.4513 127.221 65.2607C127.448 63.7572 128.178 62.6896 129.411 62.0578C130.654 61.4187 132.314 61.2558 134.391 61.5692L136.333 61.8622L136.473 60.9366C136.583 60.2066 136.467 59.5935 136.124 59.0973C135.782 58.5925 135.194 58.2771 134.36 58.1513C133.638 58.0425 133.02 58.1358 132.504 58.4314C131.99 58.7182 131.691 59.1397 131.607 59.6959L128.439 59.2181C128.556 58.4446 128.921 57.7619 129.535 57.1701C130.15 56.5696 130.925 56.1443 131.86 55.8943C132.805 55.6457 133.82 55.6033 134.906 55.7671C136.557 56.0162 137.811 56.632 138.667 57.6145C139.525 58.5882 139.853 59.8288 139.652 61.3362L138.693 67.6979C138.501 68.9667 138.527 70.0061 138.769 70.8159L138.736 71.0375L135.503 70.5498ZM132.366 67.7434C132.992 67.8378 133.601 67.7742 134.195 67.5527C134.797 67.3324 135.276 66.9869 135.631 66.5161L136.032 63.8567L134.325 63.5991C133.151 63.4221 132.238 63.4933 131.586 63.8126C130.933 64.1319 130.551 64.6652 130.438 65.4126C130.346 66.021 130.473 66.5378 130.817 66.9631C131.172 67.3811 131.688 67.6412 132.366 67.7434ZM143.77 57.371L146.938 57.8489L145.192 69.4249L150.693 70.2548L152.439 58.6787L155.607 59.1566L153.861 70.7326L155.777 71.0217L154.504 77.696L151.623 77.2614L152.254 73.0768L141.643 71.4761L143.77 57.371ZM168.565 61.1113L171.72 61.5872L169.592 75.6923L166.437 75.2164L167.857 65.8043L160.91 74.3826L157.755 73.9067L159.883 59.8016L163.038 60.2775L161.618 69.6896L168.565 61.1113ZM186.385 63.7995L184.258 77.9046L181.103 77.4287L181.884 72.2534L178.924 71.807L175.132 76.528L171.847 76.0325L176.031 70.8372C175.217 70.3411 174.626 69.7187 174.259 68.97C173.901 68.2226 173.788 67.4101 173.92 66.5323C174.118 65.22 174.784 64.2227 175.918 63.5405C177.062 62.8509 178.496 62.6272 180.219 62.8694L186.385 63.7995ZM177.076 67.0884C176.987 67.6793 177.132 68.1945 177.51 68.6337C177.898 69.0656 178.435 69.3333 179.122 69.4369L182.238 69.9069L182.851 65.8396L179.931 65.3991C179.158 65.2824 178.511 65.3849 177.992 65.7065C177.472 66.0281 177.167 66.4887 177.076 67.0884Z" fill="#486E2F"/>
</svg>
