<svg width="144" height="93" viewBox="0 0 144 93" fill="none" xmlns="http://www.w3.org/2000/svg">
<path d="M9.46857 19.577C10.2312 13.7218 14.975 9.19177 20.8591 8.69974L114.527 0.867252C120.54 0.364392 126.059 4.21589 127.662 10.0338L140.278 55.8338C142.263 63.041 137.542 70.3735 130.16 71.5489L16.5752 89.6329C8.30009 90.9504 1.08554 83.9376 2.1678 75.6285L9.46857 19.577Z" fill="#BED01C"/>
<path d="M40.5022 57.5833L38.0798 39.9757L44.1143 39.1455C46.1056 38.8716 47.6762 39.0621 48.826 39.7172C49.9758 40.3723 50.6594 41.4899 50.8768 43.07C50.9877 43.8763 50.8699 44.6318 50.5233 45.3367C50.1767 46.0415 49.6085 46.629 48.8189 47.0991C49.8057 47.2262 50.6064 47.613 51.2211 48.2595C51.8428 48.8969 52.2223 49.7154 52.3599 50.7151C52.5873 52.3679 52.2298 53.7108 51.2877 54.7441C50.3535 55.7762 48.8989 56.4281 46.9237 56.6999L40.5022 57.5833ZM42.4687 49.2172L43.2257 54.7196L46.6239 54.2521C47.5833 54.1201 48.3003 53.7791 48.775 53.2291C49.2497 52.6792 49.4289 51.9809 49.3124 51.1344C49.0606 49.3043 47.9968 48.4978 46.1208 48.7148L42.4687 49.2172ZM42.1592 46.9679L45.1583 46.5553C46.1097 46.4244 46.822 46.1087 47.2953 45.6082C47.7756 45.0986 47.9614 44.4487 47.8527 43.6586C47.7329 42.7879 47.3964 42.1934 46.8433 41.8752C46.2983 41.5559 45.5018 41.4683 44.4537 41.6125L41.4788 42.0218L42.1592 46.9679ZM54.3754 48.8853C54.199 47.6034 54.2944 46.4156 54.6614 45.3218C55.0274 44.22 55.6322 43.3318 56.4758 42.6571C57.3184 41.9744 58.3362 41.5509 59.5294 41.3868C61.295 41.1439 62.8042 41.5154 64.0571 42.5013C65.318 43.4861 66.122 44.9116 66.4691 46.7779L66.576 47.4655C66.7535 48.7555 66.6622 49.9427 66.3021 51.0273C65.95 52.1108 65.3487 52.9945 64.4981 53.6783C63.6555 54.361 62.6296 54.7856 61.4203 54.9519C59.5741 55.2059 58.0104 54.7967 56.7292 53.7244C55.455 52.6428 54.6771 51.0782 54.3954 49.0304L54.3754 48.8853ZM57.349 48.735C57.5342 50.0813 57.9576 51.0992 58.6193 51.7886C59.2798 52.4699 60.1059 52.7423 61.0975 52.6059C62.0892 52.4694 62.8059 51.9765 63.2476 51.1272C63.6974 50.2767 63.8197 49.1057 63.6145 47.6142C63.4326 46.292 63.0022 45.2833 62.3234 44.5881C61.6525 43.8918 60.8294 43.6107 59.8539 43.7449C58.8945 43.8769 58.1853 44.3647 57.7263 45.2082C57.2662 46.0437 57.1404 47.2193 57.349 48.735ZM76.3117 39.3244L79.2382 38.9218L81.0384 52.0065L78.1118 52.4091L76.9106 43.6779L72.9843 53.1146L70.0578 53.5172L68.2577 40.4324L71.1842 40.0298L72.3854 48.761L76.3117 39.3244ZM76.9998 34.1161C77.1396 35.1319 76.898 36.003 76.2751 36.7295C75.6521 37.4559 74.7481 37.9007 73.5629 38.0637C72.3778 38.2268 71.3873 38.0427 70.5913 37.5114C69.7953 36.9802 69.3274 36.2067 69.1877 35.1908L71.3886 34.888C71.4618 35.4201 71.6681 35.8148 72.0074 36.0721C72.3537 36.3202 72.7929 36.4076 73.325 36.3344C73.8571 36.2612 74.2524 36.059 74.5107 35.7277C74.768 35.3884 74.86 34.9526 74.7868 34.4205L76.9998 34.1161ZM92.9827 39.409L88.738 39.993L90.217 50.7438L87.2784 51.148L85.7994 40.3973L81.603 40.9746L81.2819 38.6406L92.6616 37.075L92.9827 39.409ZM102.796 35.6808L105.722 35.2782L107.522 48.363L104.596 48.7656L103.395 40.0344L99.4683 49.471L96.5417 49.8736L94.7416 36.7889L97.6681 36.3863L98.8693 45.1175L102.796 35.6808Z" fill="#486E2F"/>
</svg>
