<svg width="306" height="180" viewBox="0 0 306 180" fill="none" xmlns="http://www.w3.org/2000/svg">
<path d="M261.61 115.883L237.533 105.261V96.1288L246.113 96.0806C247.445 96.0731 248.741 95.6488 249.819 94.8672C250.897 94.0856 251.703 92.986 252.124 91.7228L258.152 73.6395C258.471 72.6815 258.558 71.6613 258.406 70.663C258.253 69.6647 257.866 68.7168 257.276 67.8976C256.685 67.0784 255.908 66.4112 255.009 65.951C254.111 65.4908 253.115 65.2509 252.105 65.2509H237.533V56.7532H255.827C257.269 56.7532 258.669 56.2641 259.797 55.3659C260.925 54.4676 261.715 53.2133 262.038 51.8078L266.189 33.7503C266.404 32.8164 266.405 31.846 266.193 30.9115C265.981 29.977 265.561 29.1023 264.964 28.3527C264.367 27.603 263.609 26.9975 262.746 26.5814C261.882 26.1653 260.937 25.9492 259.978 25.9492H237.533V23.8248C237.533 23.2668 237.423 22.7143 237.209 22.1988C236.996 21.6833 236.683 21.2149 236.288 20.8204C235.894 20.4258 235.425 20.1129 234.91 19.8994C234.394 19.6858 233.842 19.5759 233.284 19.5759C232.726 19.5759 232.174 19.6858 231.658 19.8994C231.143 20.1129 230.674 20.4258 230.28 20.8204C229.885 21.2149 229.572 21.6833 229.359 22.1988C229.145 22.7143 229.035 23.2668 229.035 23.8248V25.9492H78.5557V23.8248C78.5557 22.6979 78.108 21.6172 77.3112 20.8204C76.5144 20.0236 75.4337 19.5759 74.3068 19.5759C73.18 19.5759 72.0993 20.0236 71.3025 20.8204C70.5056 21.6172 70.058 22.6979 70.058 23.8248V25.9492H52.2155C51.2572 25.9492 50.3113 26.1653 49.448 26.5814C48.5848 26.9975 47.8265 27.603 47.2296 28.3527C46.6327 29.1024 46.2126 29.977 46.0004 30.9115C45.7883 31.846 45.7896 32.8164 46.0043 33.7503L50.1555 51.8078C50.4785 53.2133 51.2687 54.4676 52.3969 55.3659C53.5251 56.2641 54.9246 56.7532 56.3667 56.7532H70.058V65.2509H60.0882C59.0837 65.2509 58.0935 65.4883 57.1983 65.9437C56.303 66.3992 55.5281 67.0598 54.9367 67.8717C54.3453 68.6836 53.9542 69.6238 53.7952 70.6156C53.6363 71.6074 53.714 72.6227 54.0221 73.5787L60.1745 92.6724C60.5899 93.9618 61.4054 95.0852 62.5027 95.8797C63.5999 96.6743 64.9217 97.0985 66.2764 97.0909L70.058 97.0697V105.261L50.5842 115.883C49.7472 115.883 48.9185 116.048 48.1453 116.368C47.372 116.688 46.6694 117.158 46.0776 117.749C45.4858 118.341 45.0164 119.044 44.6961 119.817C44.3758 120.59 44.2109 121.419 44.2109 122.256V122.256C44.2109 123.946 44.8824 125.567 46.0776 126.763C47.2728 127.958 48.8939 128.629 50.5842 128.629H70.058V175.366C70.058 176.493 70.5056 177.574 71.3025 178.371C72.0993 179.168 73.18 179.615 74.3068 179.615C75.4337 179.615 76.5144 179.168 77.3112 178.371C78.108 177.574 78.5557 176.493 78.5557 175.366V128.629H229.035V175.366C229.035 176.493 229.483 177.574 230.28 178.371C231.076 179.168 232.157 179.615 233.284 179.615C234.411 179.615 235.492 179.168 236.288 178.371C237.085 177.574 237.533 176.493 237.533 175.366V128.629H261.61C263.3 128.629 264.921 127.958 266.116 126.763C267.311 125.567 267.983 123.946 267.983 122.256V122.256C267.983 121.419 267.818 120.59 267.498 119.817C267.177 119.044 266.708 118.341 266.116 117.749C265.524 117.158 264.822 116.688 264.048 116.368C263.275 116.048 262.447 115.883 261.61 115.883V115.883ZM78.5557 56.7532H229.035V65.2509H78.5557V56.7532ZM78.5557 105.261V97.0219L229.035 96.1765V105.261H78.5557Z" fill="#FED385"/>
<path d="M130.728 171.537L124.394 173.37L114.312 149.811L123.66 147.106L130.728 171.537Z" fill="#9E616A"/>
<path d="M145.876 86.1577L139.341 93.1281C139.341 93.1281 104.925 108.376 104.925 116.217C104.925 124.059 113.203 158.04 116.688 160.653C118.787 162.237 117.838 163.941 118.88 166.356L131.064 161.96C131.064 161.96 130.193 159.346 131.064 158.04C131.935 156.733 131.064 155.861 131.064 155.861C131.064 155.861 129.757 156.297 130.193 154.99C130.628 153.683 130.628 153.247 130.193 152.812C129.757 152.376 128.45 148.455 128.45 148.455C128.45 148.455 128.886 132.772 122.787 127.109C122.787 127.109 151.104 118.831 154.589 113.168C158.074 107.504 158.946 87.029 158.946 87.029L145.876 86.1577Z" fill="#191263"/>
<path d="M133.31 175.148L112.204 179.504L112.149 179.237C111.699 177.059 112.133 174.791 113.356 172.932C114.579 171.073 116.489 169.777 118.668 169.327L118.669 169.327L121.92 165.606L129.717 167.046L131.56 166.666L133.31 175.148Z" fill="#191263"/>
<path d="M153.77 145.077L145.687 150.496L162.456 169.874L167.933 166.202L153.77 145.077Z" fill="#9E616A"/>
<path d="M165.844 74.149C161.526 65.0458 174.687 91.9637 172.944 100.3C171.584 106.809 146.171 127.535 146.171 127.535C153.828 130.797 158.731 145.701 158.731 145.701C158.731 145.701 161.289 148.947 161.847 149.209C162.404 149.472 162.552 149.881 162.584 151.259C162.617 152.636 163.699 151.783 163.699 151.783C163.699 151.783 164.814 152.308 164.437 153.833C164.06 155.358 165.766 157.522 165.766 157.522L156.346 166.303C154.548 164.385 154.308 161.941 151.796 161.162C147.632 159.884 128.333 130.716 125.676 123.338C123.02 115.96 150.236 89.9553 150.236 89.9553L152.547 77.0845L165.844 74.149Z" fill="#191263"/>
<path d="M170.694 172.7L150.417 180L150.325 179.743C149.571 177.65 149.68 175.343 150.627 173.33C151.575 171.318 153.283 169.763 155.376 169.009L155.376 169.009L158.068 164.866L165.991 165.188L167.761 164.551L170.694 172.7Z" fill="#191263"/>
<path d="M150.392 30.6643L144.522 35.1338L128.93 39.2631C128.93 39.2631 134.517 78.4735 131.88 81.1104C129.243 83.7473 131.621 83.8181 131.091 87.2436C130.561 90.669 129.274 97.6908 129.274 97.6908C147.073 107.113 162.417 107.365 174.743 96.3403C174.9 95.6583 174.82 94.9429 174.516 94.3126C174.211 93.6824 173.7 93.1752 173.068 92.8751C170.774 91.6579 175.182 85.9767 173.308 85.0268C171.433 84.0769 174.07 75.8367 174.07 75.8367L179.784 48.8583L164.585 36.9661L162.273 31.3965L150.392 30.6643Z" fill="#B1E9DD"/>
<path d="M157.715 65.7021C158.837 65.7021 159.746 64.7928 159.746 63.6712C159.746 62.5496 158.837 61.6404 157.715 61.6404C156.593 61.6404 155.684 62.5496 155.684 63.6712C155.684 64.7928 156.593 65.7021 157.715 65.7021Z" fill="#F2F2F2"/>
<path d="M156.4 28.1767C162.812 28.1767 168.01 22.9786 168.01 16.5664C168.01 10.1542 162.812 4.95605 156.4 4.95605C149.988 4.95605 144.79 10.1542 144.79 16.5664C144.79 22.9786 149.988 28.1767 156.4 28.1767Z" fill="#9E616A"/>
<path d="M129.849 39.2248C129.849 39.2248 127.45 38.7451 126.011 43.0629C124.571 47.3808 117.347 70.1181 117.347 72.9967C117.347 75.8752 152.159 82.1507 152.159 82.1507L148.74 70.1543L132.926 65.2071L129.849 39.2248Z" fill="#B1E9DD"/>
<path d="M153.684 80.3725C156.779 80.3725 159.288 77.8638 159.288 74.7691C159.288 71.6745 156.779 69.1658 153.684 69.1658C150.59 69.1658 148.081 71.6745 148.081 74.7691C148.081 77.8638 150.59 80.3725 153.684 80.3725Z" fill="#9E616A"/>
<path opacity="0.1" d="M133.957 59.4976L134.396 65.4403L148.316 72.7461L135.935 64.4418L133.957 59.4976Z" fill="black"/>
<path d="M166.712 57.1581H166.531V52.2113C166.531 51.8353 166.457 51.463 166.313 51.1156C166.169 50.7682 165.958 50.4526 165.692 50.1867C165.427 49.9209 165.111 49.71 164.764 49.5661C164.416 49.4222 164.044 49.3481 163.668 49.3481H153.187C152.811 49.3481 152.439 49.4222 152.092 49.5661C151.744 49.71 151.429 49.9209 151.163 50.1867C150.897 50.4526 150.686 50.7682 150.542 51.1156C150.398 51.463 150.324 51.8353 150.324 52.2113V79.3501C150.324 79.7261 150.398 80.0984 150.542 80.4458C150.686 80.7932 150.897 81.1088 151.163 81.3746C151.429 81.6405 151.744 81.8514 152.092 81.9953C152.439 82.1392 152.811 82.2132 153.187 82.2132H163.668C164.044 82.2132 164.416 82.1392 164.764 81.9953C165.111 81.8514 165.427 81.6405 165.692 81.3747C165.958 81.1088 166.169 80.7932 166.313 80.4458C166.457 80.0984 166.531 79.7261 166.531 79.3501V60.6794H166.712V57.1581Z" fill="#FACFCA"/>
<path d="M178.578 47.5037C178.578 47.5037 180.017 48.4632 180.977 52.781C181.936 57.0989 188.173 73.4107 185.774 77.2488C183.376 81.0869 182.667 85.1833 174.511 79.4261L163.226 69.0929L171.382 61.4167L174.74 63.8155L178.578 47.5037Z" fill="#B1E9DD"/>
<path d="M158.556 61.4438C159.881 61.4438 160.955 60.3699 160.955 59.045C160.955 57.7202 159.881 56.6462 158.556 56.6462C157.231 56.6462 156.157 57.7202 156.157 59.045C156.157 60.3699 157.231 61.4438 158.556 61.4438Z" fill="#191263"/>
<path d="M165.5 69.9037C168.595 69.9037 171.104 67.395 171.104 64.3004C171.104 61.2057 168.595 58.697 165.5 58.697C162.406 58.697 159.897 61.2057 159.897 64.3004C159.897 67.395 162.406 69.9037 165.5 69.9037Z" fill="#9E616A"/>
<path opacity="0.1" d="M132.022 78.2583L149.311 81.4952L132.479 82.1414L132.022 78.2583Z" fill="black"/>
<path d="M166.623 8.89637C166.623 8.89637 169.646 3.11747 162.995 2.59211C162.995 2.59211 157.326 -2.55097 151.547 1.65187C151.547 1.65187 148.395 1.65188 146.671 5.21888C146.671 5.21888 144.192 4.27865 143.647 6.79495C143.647 6.79495 141.833 12.0485 143.647 16.7767C145.461 21.5049 146.064 22.0303 146.064 22.0303C146.064 22.0303 144.791 16.1628 152.047 15.6375C159.302 15.1121 165.959 10.5667 166.563 16.3456C167.168 22.1245 167.833 19.514 167.833 19.514C167.833 19.514 173.576 11.2605 166.623 8.89637Z" fill="#191263"/>
</svg>
