<svg width="606" height="357" viewBox="0 0 606 357" fill="none" xmlns="http://www.w3.org/2000/svg">
<path d="M518.86 229.834L471.107 208.767V190.655L488.125 190.56C490.766 190.545 493.336 189.703 495.474 188.153C497.612 186.603 499.211 184.422 500.046 181.917L512.001 146.052C512.634 144.152 512.807 142.128 512.505 140.148C512.203 138.168 511.435 136.288 510.264 134.664C509.093 133.039 507.552 131.715 505.769 130.803C503.987 129.89 502.012 129.414 500.009 129.414H471.107V112.56H507.391C510.251 112.56 513.027 111.59 515.264 109.809C517.502 108.027 519.069 105.54 519.71 102.752L527.943 66.938C528.369 65.0856 528.371 63.1612 527.951 61.3077C527.53 59.4542 526.697 57.7195 525.513 56.2326C524.329 54.7457 522.825 53.545 521.113 52.7197C519.401 51.8943 517.525 51.4657 515.624 51.4657H471.107V47.2523C471.107 46.1457 470.889 45.0499 470.466 44.0275C470.042 43.0051 469.422 42.0761 468.639 41.2936C467.857 40.5111 466.928 39.8904 465.905 39.4669C464.883 39.0434 463.787 38.8254 462.68 38.8254C461.574 38.8254 460.478 39.0434 459.456 39.4669C458.433 39.8904 457.504 40.5111 456.722 41.2936C455.939 42.0761 455.319 43.0051 454.895 44.0275C454.472 45.0499 454.254 46.1457 454.254 47.2523V51.4657H155.802V47.2523C155.802 45.0174 154.914 42.8739 153.334 41.2936C151.754 39.7133 149.61 38.8254 147.375 38.8254C145.14 38.8254 142.997 39.7133 141.417 41.2936C139.836 42.8739 138.948 45.0174 138.948 47.2523V51.4657H103.561C101.66 51.4657 99.7841 51.8943 98.072 52.7197C96.3599 53.545 94.856 54.7458 93.6722 56.2327C92.4883 57.7195 91.655 59.4542 91.2342 61.3077C90.8135 63.1612 90.8161 65.0856 91.2419 66.938L99.475 102.752C100.116 105.54 101.683 108.027 103.921 109.809C106.158 111.59 108.934 112.56 111.794 112.56H138.948V129.414H119.175C117.183 129.414 115.219 129.885 113.443 130.788C111.668 131.692 110.131 133.002 108.958 134.612C107.785 136.222 107.009 138.087 106.694 140.054C106.379 142.021 106.533 144.035 107.144 145.931L119.346 183.8C120.17 186.358 121.788 188.586 123.964 190.162C126.14 191.737 128.761 192.579 131.448 192.564L138.948 192.522V208.767L100.325 229.834C98.6654 229.834 97.0217 230.161 95.4881 230.796C93.9545 231.432 92.5611 232.363 91.3873 233.537C90.2136 234.71 89.2825 236.104 88.6473 237.637C88.012 239.171 87.6851 240.815 87.6851 242.475V242.475C87.6851 245.827 89.0168 249.042 91.3873 251.413C93.7578 253.783 96.9729 255.115 100.325 255.115H138.948V347.81C138.948 350.045 139.836 352.189 141.417 353.769C142.997 355.349 145.14 356.237 147.375 356.237C149.61 356.237 151.754 355.349 153.334 353.769C154.914 352.189 155.802 350.045 155.802 347.81V255.115H454.254V347.81C454.254 350.045 455.141 352.189 456.722 353.769C458.302 355.349 460.446 356.237 462.68 356.237C464.915 356.237 467.059 355.349 468.639 353.769C470.219 352.189 471.107 350.045 471.107 347.81V255.115H518.86C522.212 255.115 525.427 253.783 527.798 251.413C530.168 249.042 531.5 245.827 531.5 242.475V242.475C531.5 240.815 531.173 239.171 530.538 237.637C529.902 236.104 528.971 234.71 527.798 233.537C526.624 232.363 525.23 231.432 523.697 230.796C522.163 230.161 520.519 229.834 518.86 229.834V229.834ZM155.802 112.56H454.254V129.414H155.802V112.56ZM155.802 208.767V192.427L454.254 190.75V208.767H155.802Z" fill="#FED385"/>
<path d="M259.278 340.216L246.715 343.85L226.718 297.125L245.259 291.76L259.278 340.216Z" fill="#9E616A"/>
<path d="M289.321 170.88L276.361 184.704C276.361 184.704 208.102 214.945 208.102 230.498C208.102 246.051 224.519 313.445 231.431 318.63C235.594 321.769 233.712 325.151 235.778 329.939L259.944 321.222C259.944 321.222 258.216 316.038 259.944 313.445C261.672 310.853 259.944 309.125 259.944 309.125C259.944 309.125 257.352 309.989 258.216 307.397C259.08 304.805 259.08 303.941 258.216 303.077C257.352 302.213 254.76 294.437 254.76 294.437C254.76 294.437 255.624 263.331 243.527 252.099C243.527 252.099 299.69 235.682 306.602 224.45C313.514 213.217 315.242 172.608 315.242 172.608L289.321 170.88Z" fill="#191263"/>
<path d="M264.399 347.378L222.538 356.018L222.428 355.488C221.537 351.167 222.398 346.669 224.823 342.982C227.248 339.296 231.037 336.724 235.358 335.832L235.359 335.832L241.808 328.452L257.272 331.309L260.927 330.555L264.399 347.378Z" fill="#191263"/>
<path d="M304.978 287.737L288.946 298.485L322.206 336.917L333.068 329.634L304.978 287.737Z" fill="#9E616A"/>
<path d="M328.924 147.063C320.361 129.008 346.462 182.395 343.006 198.929C340.308 211.839 289.906 252.944 289.906 252.944C305.093 259.415 314.817 288.974 314.817 288.974C314.817 288.974 319.89 295.412 320.996 295.932C322.102 296.452 322.394 297.265 322.46 299.997C322.525 302.728 324.671 301.037 324.671 301.037C324.671 301.037 326.882 302.078 326.134 305.102C325.387 308.126 328.769 312.419 328.769 312.419L310.087 329.835C306.521 326.03 306.044 321.183 301.063 319.639C292.803 317.103 254.527 259.254 249.258 244.621C243.989 229.988 297.968 178.412 297.968 178.412L302.551 152.885L328.924 147.063Z" fill="#191263"/>
<path d="M338.544 342.522L298.328 357L298.145 356.491C296.651 352.34 296.866 347.765 298.745 343.772C300.624 339.78 304.011 336.697 308.162 335.203L308.163 335.202L313.503 326.984L329.215 327.623L332.726 326.359L338.544 342.522Z" fill="#191263"/>
<path d="M298.276 60.8176L286.635 69.6822L255.71 77.872C255.71 77.872 266.791 155.639 261.562 160.869C256.332 166.099 261.048 166.24 259.997 173.033C258.947 179.827 256.392 193.754 256.392 193.754C291.694 212.44 322.127 212.942 346.573 191.075C346.886 189.722 346.727 188.304 346.123 187.054C345.518 185.804 344.505 184.798 343.251 184.203C338.701 181.788 347.445 170.521 343.727 168.637C340.009 166.753 345.238 150.41 345.238 150.41L356.572 96.9025L326.426 73.3162L321.841 62.2699L298.276 60.8176Z" fill="#B1E9DD"/>
<path d="M312.802 130.309C315.026 130.309 316.83 128.506 316.83 126.282C316.83 124.057 315.026 122.254 312.802 122.254C310.577 122.254 308.774 124.057 308.774 126.282C308.774 128.506 310.577 130.309 312.802 130.309Z" fill="#F2F2F2"/>
<path d="M310.193 55.8839C322.911 55.8839 333.22 45.5743 333.22 32.8567C333.22 20.1392 322.911 9.82959 310.193 9.82959C297.476 9.82959 287.166 20.1392 287.166 32.8567C287.166 45.5743 297.476 55.8839 310.193 55.8839Z" fill="#9E616A"/>
<path d="M257.534 77.7959C257.534 77.7959 252.776 76.8443 249.921 85.4081C247.067 93.9718 232.738 139.068 232.738 144.777C232.738 150.486 301.783 162.932 301.783 162.932L295.001 139.139L263.637 129.327L257.534 77.7959Z" fill="#B1E9DD"/>
<path d="M304.808 159.406C310.945 159.406 315.921 154.43 315.921 148.292C315.921 142.155 310.945 137.179 304.808 137.179C298.67 137.179 293.694 142.155 293.694 148.292C293.694 154.43 298.67 159.406 304.808 159.406Z" fill="#9E616A"/>
<path opacity="0.1" d="M265.682 118.004L266.552 129.79L294.16 144.28L269.605 127.81L265.682 118.004Z" fill="black"/>
<path d="M330.645 113.364H330.287V103.553C330.287 102.807 330.14 102.068 329.855 101.379C329.569 100.691 329.151 100.065 328.624 99.5372C328.097 99.0099 327.471 98.5917 326.782 98.3063C326.093 98.0209 325.354 97.874 324.609 97.874H303.822C303.076 97.874 302.338 98.0209 301.649 98.3063C300.96 98.5916 300.334 99.0099 299.807 99.5372C299.279 100.065 298.861 100.691 298.576 101.379C298.29 102.068 298.144 102.807 298.144 103.553V157.378C298.144 158.124 298.29 158.862 298.576 159.551C298.861 160.24 299.279 160.866 299.807 161.393C300.334 161.921 300.96 162.339 301.649 162.624C302.338 162.91 303.076 163.057 303.822 163.057H324.609C325.354 163.057 326.093 162.91 326.782 162.624C327.471 162.339 328.097 161.921 328.624 161.393C329.151 160.866 329.569 160.24 329.855 159.551C330.14 158.862 330.287 158.124 330.287 157.378V120.348H330.645V113.364Z" fill="#FACFCA"/>
<path d="M354.18 94.2158C354.18 94.2158 357.034 96.1189 358.937 104.683C360.84 113.246 373.21 145.598 368.453 153.21C363.695 160.823 362.291 168.947 346.115 157.529L323.731 137.034L339.907 121.81L346.568 126.568L354.18 94.2158Z" fill="#B1E9DD"/>
<path d="M314.47 121.864C317.098 121.864 319.228 119.734 319.228 117.106C319.228 114.478 317.098 112.348 314.47 112.348C311.842 112.348 309.712 114.478 309.712 117.106C309.712 119.734 311.842 121.864 314.47 121.864Z" fill="#191263"/>
<path d="M328.243 138.643C334.38 138.643 339.356 133.667 339.356 127.529C339.356 121.392 334.38 116.416 328.243 116.416C322.105 116.416 317.129 121.392 317.129 127.529C317.129 133.667 322.105 138.643 328.243 138.643Z" fill="#9E616A"/>
<path opacity="0.1" d="M261.845 155.213L296.134 161.633L262.749 162.914L261.845 155.213Z" fill="black"/>
<path d="M330.469 17.6445C330.469 17.6445 336.465 6.18298 323.275 5.14102C323.275 5.14102 312.03 -5.05944 300.568 3.27621C300.568 3.27621 294.317 3.27623 290.898 10.3508C290.898 10.3508 285.981 8.48601 284.9 13.4767C284.9 13.4767 281.302 23.8963 284.9 33.2739C288.498 42.6515 289.693 43.6934 289.693 43.6934C289.693 43.6934 287.169 32.0563 301.559 31.0144C315.95 29.9724 329.152 20.9573 330.351 32.4188C331.551 43.8803 332.869 38.7027 332.869 38.7027C332.869 38.7027 344.26 22.3333 330.469 17.6445Z" fill="#191263"/>
<path d="M604.265 356.949H0.836137C0.614378 356.949 0.401705 356.861 0.244898 356.704C0.0880915 356.547 0 356.335 0 356.113C0 355.891 0.0880915 355.678 0.244898 355.522C0.401705 355.365 0.614378 355.277 0.836137 355.277H604.265C604.487 355.277 604.7 355.365 604.857 355.522C605.013 355.678 605.102 355.891 605.102 356.113C605.102 356.335 605.013 356.547 604.857 356.704C604.7 356.861 604.487 356.949 604.265 356.949V356.949Z" fill="#CCCCCC"/>
</svg>
