<svg width="170" height="91" viewBox="0 0 170 91" fill="none" xmlns="http://www.w3.org/2000/svg">
<path d="M128.612 3.80185C98.2244 -2.8963 112.5 17.1083 77.6707 17.1083C64.1464 17.1083 51.0729 0 32.1389 0C7.79512 0 0.131348 13.7817 0.131348 23.2863C0.131348 30.89 4.63945 39.4442 5.99188 39.4442C5.99188 37.068 8.69674 28.5139 9.59836 27.5634C10.5 30.89 29.434 54.1764 46.114 54.1764V54.3094C47.0302 53.6632 48.0958 53.2914 49.1968 53.2338C50.2979 53.1762 51.3931 53.435 52.3656 53.9825C53.338 54.53 54.1511 55.3456 54.718 56.3423C55.2849 57.3391 55.5843 58.4794 55.5843 59.6415C55.5843 60.8037 55.2849 61.944 54.718 62.9407C54.1511 63.9374 53.338 64.7531 52.3656 65.3006C51.3931 65.8481 50.2979 66.1069 49.1968 66.0493C48.0958 65.9917 47.0302 65.6199 46.114 64.9736V78.8884H50.6221C56.4826 78.8884 59.1875 76.5122 68.2037 76.5122C83.982 76.5122 91.5 98 122.5 88C146 74 131.741 69.1537 165.5 39.4442C179 27.5634 159 10.5 128.612 3.80185Z" fill="#191263"/>
</svg>
