<svg width="210" height="111" viewBox="0 0 210 111" fill="none" xmlns="http://www.w3.org/2000/svg">
<path id="hair2" d="M163 4.78935C131 -12.7106 110.498 23.3777 88.8111 23.3777C73.3208 23.3777 58.3468 4.78935 36.6604 4.78935C8.77785 4.78935 0 19.7633 0 30.0902C0 38.3517 5.16344 47.6459 6.71247 47.6459C6.71247 45.0641 9.81053 35.77 10.8432 34.7373C11.8759 38.3517 33.5623 63.6525 52.6671 63.6525V63.7971C53.7165 63.0949 54.9369 62.691 56.1981 62.6284C57.4592 62.5658 58.7136 62.847 59.8274 63.4418C60.9412 64.0367 61.8725 64.923 62.5218 66.0059C63.1711 67.0888 63.5141 68.3278 63.5141 69.5905C63.5141 70.8532 63.1711 72.0922 62.5218 73.1751C61.8725 74.258 60.9412 75.1443 59.8274 75.7391C58.7136 76.334 57.4592 76.6152 56.1981 76.5526C54.9369 76.49 53.7165 76.0861 52.6671 75.3839V90.5024H57.8305C64.543 90.5024 67.641 87.9207 77.9679 87.9207C96.0399 87.9207 138.491 124.037 152.322 104.289C181.5 62.6284 193 89.7225 206 66.0059C219 42.2894 188.882 18.9438 163 4.78935Z" fill="#191263"/>
</svg>
