<svg width="175" height="98" viewBox="0 0 175 98" fill="none" xmlns="http://www.w3.org/2000/svg">
<path id="hair" d="M164.868
        4.34299C147.286 4.34299 132.861 17.6495 113.927 17.6495C100.402
        17.6495 87.3287 0.541138 68.3947 0.541138C44.051 0.541138 36.3872
        14.3228 36.3872 23.8275C36.3872 31.4312 40.8953 39.9853 42.2477
        39.9853C42.2477 37.6092 44.9526 29.055 45.8542 28.1046C46.7558
        31.4312 65.6899 54.7175 82.3698 54.7175V54.8506C83.2861 54.2043
        84.3516 53.8325 85.4527 53.7749C86.5538 53.7173 87.649 53.9761
        88.6214 54.5236C89.5938 55.0711 90.4069 55.8868 90.9738 
        56.8835C91.5407 57.8802 91.8402 59.0205 91.8402 60.1827C91.8402 
        61.3448 91.5407 62.4851 90.9738 63.4818C90.4069 64.4785 89.5938 
        65.2942 88.6214 65.8417C87.649 66.3892 86.5538 66.648 85.4527 
        66.5904C84.3516 66.5328 83.2861 66.161 82.3698 65.5148V79.4295H86.8779C92.7385 
        79.4295 95.4433 77.0534 104.46 77.0534C120.238 77.0534 142.328 
        97.4883 169.376 97.4883C198.679 97.4883 210.851 74.202 210.851 
        48.0643C210.851 13.3724 179.745 4.34299 164.868 
        4.34299Z" fill="#191263"/>
</svg>
