<svg width="169" height="100" viewBox="0 0 169 100" fill="none" xmlns="http://www.w3.org/2000/svg">
<path d="M128 0C110.418 0 96.8606 24.6495 77.9265 24.6495C64.4022 24.6495 51.3287 7.54114 32.3947 7.54114C8.05098 7.54114 0.387207 21.3228 0.387207 30.8275C0.387207 38.4312 4.89531 46.9853 6.24774 46.9853C6.24774 44.6092 8.9526 36.055 9.85422 35.1046C10.7558 38.4312 29.6899 61.7175 46.3698 61.7175V61.8506C47.2861 61.2043 48.3516 60.8325 49.4527 60.7749C50.5538 60.7173 51.649 60.9761 52.6214 61.5236C53.5938 62.0711 54.4069 62.8868 54.9738 63.8835C55.5407 64.8802 55.8402 66.0205 55.8402 67.1826C55.8402 68.3448 55.5407 69.4851 54.9738 70.4818C54.4069 71.4785 53.5938 72.2942 52.6214 72.8417C51.649 73.3892 50.5538 73.648 49.4527 73.5904C48.3516 73.5328 47.2861 73.161 46.3698 72.5147V86.4295H50.8779C56.7385 86.4295 59.4433 84.0534 68.4595 84.0534C84.2379 84.0534 66.9174 115.223 131 89.5C172.5 72.8417 157 63.8835 167 38C177 12.1165 142.877 0 128 0Z" fill="#191263"/>
</svg>
