<svg width="167" height="91" viewBox="0 0 167 91" fill="none" xmlns="http://www.w3.org/2000/svg">
<path id="hair2" d="M128.481 3.80185C94.5 -6 112.369 17.1083 77.5393 17.1083C64.015 17.1083 50.9415 0 32.0075 0C7.66377 0 0 13.7817 0 23.2863C0 30.89 4.5081 39.4442 5.86053 39.4442C5.86053 37.068 8.56539 28.5139 9.46701 27.5634C10.3686 30.89 29.3027 54.1764 45.9826 54.1764V54.3094C46.8989 53.6632 47.9644 53.2914 49.0655 53.2338C50.1666 53.1762 51.2618 53.435 52.2342 53.9825C53.2066 54.53 54.0197 55.3456 54.5866 56.3423C55.1535 57.3391 55.453 58.4794 55.453 59.6415C55.453 60.8037 55.1535 61.944 54.5866 62.9407C54.0197 63.9374 53.2066 64.7531 52.2342 65.3006C51.2618 65.8481 50.1666 66.1069 49.0655 66.0493C47.9644 65.9917 46.8989 65.6199 45.9826 64.9736V78.8884H50.4907C56.3513 78.8884 59.0561 76.5123 68.0723 76.5123C83.8507 76.5123 91.3687 98 122.369 88C176.5 70.5383 127.741 72.2095 161.5 42.5C175 30.6192 162.462 13.6037 128.481 3.80185Z" fill="#191263"/>
</svg>
