<svg width="175" height="97" viewBox="0 0 175 97" fill="none" xmlns="http://www.w3.org/2000/svg">
<path d="M128.481 3.80185C110.899 3.80185 96.4738 17.1084 77.5398 17.1084C64.0148 17.1084 50.9415 0 32.0075 0C7.6638 0 0 13.7817 0 23.2864C0 30.8901 4.5081 39.4442 5.8605 39.4442C5.8605 37.0681 8.5654 28.5139 9.467 27.5635C10.3686 30.8901 29.3027 54.1764 45.9826 54.1764V54.3095C46.8989 53.6632 47.9644 53.2914 49.0655 53.2338C50.1666 53.1762 51.2618 53.435 52.2342 53.9825C53.2066 54.53 54.0197 55.3457 54.5866 56.3424C55.1535 57.3391 55.453 58.4794 55.453 59.6416C55.453 60.8037 55.1535 61.944 54.5866 62.9407C54.0197 63.9374 53.2066 64.7531 52.2342 65.3006C51.2618 65.8481 50.1666 66.1069 49.0655 66.0493C47.9644 65.9917 46.8989 65.6199 45.9826 64.9737V78.8884H50.4907C56.3513 78.8884 59.0561 76.5123 68.0728 76.5123C83.8508 76.5123 105.941 96.9472 132.989 96.9472C162.292 96.9472 174.464 73.6609 174.464 47.5232C174.464 12.8313 143.358 3.80185 128.481 3.80185Z" fill="#191263"/>
</svg>
