<svg width="178" height="112" viewBox="0 0 178 112" fill="none" xmlns="http://www.w3.org/2000/svg">
<path id="hair3" d="M153.5 2.00006C119.519 -7.80179 112.369 29.1084 77.5393 29.1084C64.015 29.1084 50.9415 12 32.0075 12C7.66377 12 0 25.7818 0 35.2864C0 42.8901 4.5081 51.4442 5.86053 51.4442C5.86053 49.0681 8.56539 40.5139 9.46701 39.5635C10.3686 42.8901 29.3027 66.1764 45.9826 66.1764V66.3095C46.8989 65.6632 47.9644 65.2914 49.0655 65.2338C50.1666 65.1762 51.2618 65.435 52.2342 65.9825C53.2066 66.53 54.0197 67.3457 54.5866 68.3424C55.1535 69.3391 55.453 70.4794 55.453 71.6416C55.453 72.8037 55.1535 73.9441 54.5866 74.9408C54.0197 75.9375 53.2066 76.7532 52.2342 77.3007C51.2618 77.8482 50.1666 78.1069 49.0655 78.0493C47.9644 77.9918 46.8989 77.62 45.9826 76.9737V90.8885H50.4907C56.3513 90.8885 59.0561 88.5123 68.0723 88.5123C83.8507 88.5123 109.735 125.064 136.5 106.5C182 74.9408 117.682 64.6121 161.5 54.5C181 50 187.481 11.8019 153.5 2.00006Z" fill="#191263"/>
</svg>
