<svg width="177" height="105" viewBox="0 0 177 105" fill="none" xmlns="http://www.w3.org/2000/svg">
<path id="hair4" d="M146.5 1.49989C109 12.4998 82 -11.0001 82 13C82 26.5244 50.9415 3.99995 32.0075 3.99995C7.66377 3.99995 0 17.7817 0 27.2863C0 34.89 4.5081 43.4441 5.86053 43.4441C5.86053 41.068 8.56539 32.5138 9.46701 31.5633C10.3686 34.89 29.3027 58.1763 45.9826 58.1763V58.3094C46.8989 57.6631 47.9644 57.2913 49.0655 57.2337C50.1666 57.1762 51.2618 57.435 52.2342 57.9825C53.2066 58.53 54.0197 59.3456 54.5866 60.3423C55.1535 61.339 55.453 62.4793 55.453 63.6415C55.453 64.8036 55.1535 65.9439 54.5866 66.9407C54.0197 67.9374 53.2066 68.753 52.2342 69.3005C51.2618 69.848 50.1666 70.1068 49.0655 70.0492C47.9644 69.9916 46.8989 69.6198 45.9826 68.9736V82.8883H50.4907C56.3513 82.8883 59.0561 80.5122 68.0723 80.5122C83.8507 80.5122 87.2351 117.564 114 98.9999C159.5 67.4407 117.933 35.355 161.5 46.4999C183 51.9999 184 -9.5 146.5 1.49989Z" fill="#191263"/>
</svg>
