<svg width="168" height="80" viewBox="0 0 168 80" fill="none" xmlns="http://www.w3.org/2000/svg">
<path d="M128.868 4.34297C106 14.6225 96.861 17.6495 77.927 17.6495C64.402 17.6495 51.3287 0.541113 32.3947 0.541113C8.05101 0.541113 0.387207 14.3228 0.387207 23.8275C0.387207 31.4312 4.89531 39.9853 6.24771 39.9853C6.24771 37.6092 8.95261 29.055 9.85421 28.1046C10.7558 31.4312 29.6899 54.7175 46.3698 54.7175V54.8506C47.2861 54.2043 48.3516 53.8325 49.4527 53.7749C50.5538 53.7173 51.649 53.9761 52.6214 54.5236C53.5938 55.0711 54.4069 55.8868 54.9738 56.8835C55.5407 57.8802 55.8402 59.0205 55.8402 60.1827C55.8402 61.3448 55.5407 62.4851 54.9738 63.4818C54.4069 64.4785 53.5938 65.2942 52.6214 65.8417C51.649 66.3892 50.5538 66.648 49.4527 66.5904C48.3516 66.5328 47.2861 66.161 46.3698 65.5148V79.4295H50.8779C56.7385 79.4295 59.4433 77.0534 68.46 77.0534C84.238 77.0534 82.124 50.4412 106 68.5C136.624 74.0118 146.5 63.4818 163.5 44.5C175.5 12.5 163 -10.9999 128.868 4.34297Z" fill="#191263"/>
</svg>
