<svg width="156" height="116" viewBox="0 0 156 116" fill="none" xmlns="http://www.w3.org/2000/svg" style="">
<path d="M60.3736 19.2724H37.2099V38.3848H13.5533V1H80.8267M132.822 38.3848V19.6924M80.8267 1H132.822V19.6924M80.8267 1V19.2724M0 57.2873H57.9094V38.3848H103.498V57.2873H155M13.5533 76.1897V82.9106M132.822 76.1897V114.625H80.8267M37.2099 114.625H13.5533V82.9106M37.2099 114.625V101.183M37.2099 114.625H80.8267M13.5533 82.9106H57.9094V96.9824M80.8267 114.625V76.1897M80.8267 57.2873V76.1897M80.8267 76.1897H111.383V96.9824H103.498M132.822 19.6924L103.498 19.2724" stroke="#191263" stroke-width="2" stroke-linejoin="round" class="MoltbUxI_0"></path>
<path d="M154.507 57.0773L133.561 44.6857" stroke="#191263" stroke-width="2" stroke-linejoin="round" class="MoltbUxI_1"></path>
<path d="M154.507 57.2872L133.561 69.6788" stroke="#191263" stroke-width="2" stroke-linejoin="round" class="MoltbUxI_2"></path>
<style data-made-with="vivus-instant">.MoltbUxI_0{stroke-dasharray:885 887;stroke-dashoffset:886;animation:MoltbUxI_draw_0 4400ms linear 0ms infinite,MoltbUxI_fade 4400ms linear 0ms infinite;}.MoltbUxI_1{stroke-dasharray:25 27;stroke-dashoffset:26;animation:MoltbUxI_draw_1 4400ms linear 0ms infinite,MoltbUxI_fade 4400ms linear 0ms infinite;}.MoltbUxI_2{stroke-dasharray:25 27;stroke-dashoffset:26;animation:MoltbUxI_draw_2 4400ms linear 0ms infinite,MoltbUxI_fade 4400ms linear 0ms infinite;}@keyframes MoltbUxI_draw{100%{stroke-dashoffset:0;}}@keyframes MoltbUxI_fade{0%{stroke-opacity:1;}95.45454545454545%{stroke-opacity:1;}100%{stroke-opacity:0;}}@keyframes MoltbUxI_draw_0{11.363636363636363%{stroke-dashoffset: 886}72.72727272727273%{ stroke-dashoffset: 0;}100%{ stroke-dashoffset: 0;}}@keyframes MoltbUxI_draw_1{11.363636363636363%{stroke-dashoffset: 26}72.72727272727273%{ stroke-dashoffset: 0;}100%{ stroke-dashoffset: 0;}}@keyframes MoltbUxI_draw_2{11.363636363636363%{stroke-dashoffset: 26}72.72727272727273%{ stroke-dashoffset: 0;}100%{ stroke-dashoffset: 0;}}</style></svg>
