<svg width="291" height="480" viewBox="0 0 291 480" fill="none" xmlns="http://www.w3.org/2000/svg">
<g id="main-screen-image">
<g id="Group 1379">
<path id="Rectangle 67" d="M243.715 319.17L221.812 278.02L265.617 278.02L243.715 319.17Z" fill="#486E2F"/>
</g>
<g id="main-screen-image_2">
<g id="Group 1381">
<g id="main-scren-mg">
<g id="illustration 2">
<g id="Group 1372">
<path id="Rectangle 42" d="M104.585 278.32L104.585 371.239H197.504V371.239C197.504 319.922 155.903 278.32 104.585 278.32V278.32Z" fill="#A8DBE7"/>
<path id="Rectangle 52" d="M104.585 92.9191L197.504 92.9191V0V0C146.186 0 104.585 41.6013 104.585 92.9191V92.9191Z" fill="#3A3185"/>
<rect id="Rectangle 1" x="119.634" y="61.9346" width="10.297" height="43.5644" transform="rotate(-45 119.634 61.9346)" fill="#EFF8DC"/>
<rect id="Rectangle 53" x="129.931" y="50.0534" width="10.297" height="43.5644" transform="rotate(-45 129.931 50.0534)" fill="#EFF8DC"/>
<path id="Ellipse 64" d="M173.1 68.9109C186.442 68.9109 197.258 79.727 197.258 93.0693H148.941C148.941 79.727 159.757 68.9109 173.1 68.9109Z" fill="#BED01C"/>
<circle id="Ellipse 52" r="13.2742" transform="matrix(0 1 1 0 27.562 418.027)" fill="#4BCAA4"/>
<circle id="Ellipse 53" r="13.2742" transform="matrix(0 1 1 0 147.062 338.054)" fill="#EFF8DC"/>
<circle id="Ellipse 65" r="3.9604" transform="matrix(-1 0 0 1 176.664 77.6237)" fill="#EFF8DC"/>
</g>
<g id="Frame 8">
<g id="Group 1353">
<ellipse id="Ellipse 28" cx="57.2584" cy="232.278" rx="33.1854" ry="33.1854" transform="rotate(-45 57.2584 232.278)" fill="#3A3185"/>
</g>
<ellipse id="Ellipse 64_2" rx="9.10891" ry="9.10892" transform="matrix(-1 0 0 1 15.4756 256.238)" fill="#BED01C"/>
</g>
<g id="Frame 11" clip-path="url(#clip0_5_306)">
<rect id="Rectangle 34" width="92.9191" height="92.9191" transform="matrix(-1 0 0 1 290.177 92.6732)" fill="#E8F8DC"/>
<g id="Group 5">
<ellipse id="Ellipse 41" rx="13.2475" ry="13.2475" transform="matrix(-1 0 0 1 276.93 188.247)" fill="#4BCAA4"/>
<ellipse id="Ellipse 42" rx="13.2475" ry="13.2475" transform="matrix(-1 0 0 1 254.539 188.247)" fill="#4BCAA4"/>
<circle id="Ellipse 45" r="13.2475" transform="matrix(-1 0 0 1 232.15 188.247)" fill="#4BCAA4"/>
<ellipse id="Ellipse 46" rx="13.2475" ry="13.2475" transform="matrix(-1 0 0 1 210.505 188.247)" fill="#4BCAA4"/>
</g>
<path id="Ellipse 63" d="M290.177 185.592C290.177 173.27 285.282 161.453 276.569 152.74C267.857 144.027 256.039 139.133 243.718 139.133C231.396 139.133 219.579 144.027 210.866 152.74C202.153 161.453 197.258 173.27 197.258 185.592L205.814 185.592C205.814 175.54 209.808 165.899 216.916 158.79C224.024 151.682 233.665 147.689 243.718 147.689C253.77 147.689 263.411 151.682 270.519 158.79C277.628 165.899 281.621 175.54 281.621 185.592H290.177Z" fill="#4BCAA4"/>
<circle id="Ellipse 64_3" r="13.2742" transform="matrix(-1 0 0 1 243.718 115.239)" fill="#BED01C"/>
</g>
<g id="Frame 12">
<rect width="92.9191" height="92.9191" transform="translate(197.258 185.347)" fill="#3A3185"/>
<rect id="Rectangle 30" x="197.258" y="185.347" width="92.9191" height="92.9191" fill="#3A3185"/>
<path id="Rectangle 67_2" d="M243.718 237.116L265.62 278.266H221.815L243.718 237.116Z" fill="#A8DBE7"/>
<path id="Star 5" d="M243.718 229.151V229.151C245.993 235.301 250.842 240.15 256.992 242.425V242.425V242.425C250.842 244.701 245.993 249.55 243.718 255.7V255.7V255.7C241.442 249.55 236.593 244.701 230.443 242.425V242.425V242.425C236.593 240.15 241.442 235.301 243.718 229.151V229.151Z" fill="#EFF8DC"/>
<path id="Star 2" d="M243.718 185.347V185.347C247.7 196.109 256.185 204.594 266.947 208.576V208.576V208.576C256.185 212.559 247.7 221.044 243.718 231.806V231.806V231.806C239.735 221.044 231.25 212.559 220.488 208.576V208.576V208.576C231.25 204.594 239.735 196.109 243.718 185.347V185.347Z" fill="#EFF8DC"/>
</g>
<g id="Frame 4">
<rect width="92.9191" height="92.9191" transform="translate(11.9114 278.02)" fill="#3A3185"/>
<rect id="Rectangle 31" x="11.9114" y="278.02" width="92.9191" height="92.9191" fill="#3A3185"/>
<path id="Ellipse 59" d="M104.83 278.02C104.83 290.342 99.9356 302.159 91.2228 310.872C82.5099 319.585 70.6928 324.479 58.3709 324.479C46.0491 324.479 34.2319 319.585 25.5191 310.872C16.8062 302.159 11.9114 290.342 11.9114 278.02L58.3709 278.02H104.83Z" fill="#BED01C"/>
<g id="Group 1353_2">
<rect id="Rectangle 1_2" x="56.769" y="332.944" width="4.53091" height="32.1854" stroke="#EFF8DC"/>
<rect id="Rectangle 2" x="46.0531" y="339.259" width="4.5309" height="32.1854" transform="rotate(-45 46.0531 339.259)" stroke="#EFF8DC"/>
<rect id="Rectangle 4" x="-0.707107" width="4.5309" height="32.1854" transform="matrix(-0.707107 -0.707107 -0.707107 0.707107 71.516 338.759)" stroke="#EFF8DC"/>
<rect id="Rectangle 3" x="42.9419" y="351.302" width="4.5309" height="32.1854" transform="rotate(-90 42.9419 351.302)" stroke="#EFF8DC"/>
</g>
</g>
<g id="Frame 5">
<g id="Group 1354">
<rect id="Rectangle 30_2" x="104.585" y="185.347" width="92.9191" height="92.9191" fill="#4BCAA4"/>
<g id="Group 1373">
<rect id="Rectangle 5" x="108.508" y="196.309" width="9.95562" height="39.8225" transform="rotate(-45 108.508 196.309)" fill="#486E2F"/>
<rect id="Rectangle 6" x="115.547" y="224.467" width="9.95561" height="39.8225" transform="rotate(-135 115.547 224.467)" fill="#486E2F"/>
</g>
<g id="Group 1375">
<rect id="Rectangle 5_2" x="108.508" y="245.989" width="9.95562" height="39.8225" transform="rotate(-45 108.508 245.989)" fill="#EFF8DC"/>
<rect id="Rectangle 6_2" x="115.547" y="274.148" width="9.95562" height="39.8225" transform="rotate(-135 115.547 274.148)" fill="#EFF8DC"/>
</g>
<g id="Group 1374">
<rect id="Rectangle 5_3" x="158.188" y="196.309" width="9.95562" height="39.8225" transform="rotate(-45 158.188 196.309)" fill="#EFF8DC"/>
<rect id="Rectangle 6_3" x="165.227" y="224.467" width="9.95562" height="39.8225" transform="rotate(-135 165.227 224.467)" fill="#EFF8DC"/>
</g>
<g id="Group 1376">
<rect id="Rectangle 5_4" x="158.188" y="245.989" width="9.95562" height="39.8225" transform="rotate(-45 158.188 245.989)" fill="#486E2F"/>
<rect id="Rectangle 6_4" width="9.95562" height="39.8225" transform="matrix(-0.707107 -0.707106 0.707107 -0.707106 165.227 274.148)" fill="#486E2F"/>
</g>
</g>
<path id="Star 5_2" d="M151.318 221.782V221.782C153.083 226.553 156.844 230.314 161.615 232.079V232.079V232.079C156.844 233.844 153.083 237.606 151.318 242.376V242.376V242.376C149.552 237.606 145.791 233.844 141.021 232.079V232.079V232.079C145.791 230.314 149.552 226.553 151.318 221.782V221.782Z" fill="#134961"/>
</g>
<g id="Group 1361">
<rect id="Rectangle 25" width="92.9191" height="92.9191" transform="matrix(1 0 0 -1 11.9114 185.592)" fill="#A8DBE7"/>
<path id="Polygon 9" d="M58.371 122.54L38.4598 155.725H78.2822L58.371 122.54Z" fill="#EFF8DC"/>
<path id="Polygon 10" d="M41.2185 418.327L74.4039 438.238L74.4039 398.416L41.2185 418.327Z" fill="#EFF8DC"/>
<rect id="Rectangle 63" width="17.2564" height="29.8668" transform="matrix(1 0 0 -1 49.7429 185.592)" fill="#3A3185"/>
<rect id="Rectangle 64" width="17.2564" height="29.8668" transform="matrix(-4.37114e-08 -1 -1 4.37114e-08 104.271 426.955)" fill="#3A3185"/>
<circle id="Ellipse 47" r="6.63708" transform="matrix(1 0 0 -1 58.371 105.947)" fill="#3A3185"/>
<circle id="Ellipse 48" r="6.63708" transform="matrix(1 0 0 -1 78.2821 105.947)" fill="#3A3185"/>
<circle id="Ellipse 51" r="6.63708" transform="matrix(1 0 0 -1 38.4596 105.947)" fill="#3A3185"/>
</g>
<g id="Group 1362">
<path id="Rectangle 64_2" d="M104.585 371.485H197.504V464.404H104.585V371.485Z" fill="#E8F8DC"/>
<path id="Rectangle 65" d="M104.585 417.945C104.585 392.286 125.386 371.485 151.045 371.485V371.485V464.404V464.404C125.386 464.404 104.585 443.604 104.585 417.945V417.945Z" fill="#BED01C"/>
<g id="Group 1378">
<rect id="Rectangle 66" x="127.815" y="418.18" width="33.1854" height="33.1854" transform="rotate(-45 127.815 418.18)" fill="#A8DBE7"/>
<circle id="Ellipse 54" cx="151.045" cy="417.945" r="4.64595" fill="#A8DBE7"/>
</g>
</g>
</g>
<g id="sun">
<rect id="Rectangle 1_3" x="145.707" y="108.515" width="10.429" height="62.5743" fill="#9AEFB7"/>
<rect id="Rectangle 2_2" x="125.111" y="121.366" width="10.429" height="62.5743" transform="rotate(-45 125.111 121.366)" fill="#9AEFB7"/>
<rect id="Rectangle 4_2" width="10.429" height="62.5742" transform="matrix(-0.707107 -0.707107 -0.707107 0.707107 176.732 121.366)" fill="#9AEFB7"/>
<rect id="Rectangle 3_2" x="119.634" y="145.016" width="10.4291" height="62.5743" transform="rotate(-90 119.634 145.016)" fill="#9AEFB7"/>
</g>
<g id="cross3">
<rect id="Rectangle 5_5" x="226.036" y="327.302" width="9.95562" height="39.8225" transform="rotate(-45 226.036 327.302)" fill="#BED01C"/>
<rect id="Rectangle 6_5" x="233.075" y="355.461" width="9.95562" height="39.8225" transform="rotate(-135 233.075 355.461)" fill="#BED01C"/>
</g>
<g id="cross2">
<rect id="Rectangle 5_6" x="230.1" y="398.762" width="7.81295" height="31.2518" transform="rotate(-45 230.1 398.762)" fill="#BED01C"/>
<rect id="Rectangle 6_6" x="235.624" y="420.86" width="7.81295" height="31.2518" transform="rotate(-135 235.624 420.86)" fill="#BED01C"/>
</g>
<g id="cross1">
<rect id="Rectangle 5_7" x="231.713" y="458.218" width="5.60084" height="22.4034" transform="rotate(-45 231.713 458.218)" fill="#BED01C"/>
<rect id="Rectangle 6_7" x="235.674" y="474.059" width="5.60084" height="22.4034" transform="rotate(-135 235.674 474.059)" fill="#BED01C"/>
</g>
<circle id="ellips-one" r="13.2742" transform="matrix(-1 0 0 1 151.126 140.007)" fill="#4BCAA4"/>
</g>
<path id="Rectangle 63_2" d="M58.784 262.639L56.0619 233.215L3.54184 238.073L6.26395 267.498L58.784 262.639Z" stroke="#A8DBE7" stroke-width="5"/>
</g>
</g>
</g>
<defs>
<clipPath id="clip0_5_306">
<rect width="92.9191" height="92.9191" fill="white" transform="matrix(-1 0 0 1 290.177 92.6732)"/>
</clipPath>
</defs>
</svg>
