<svg width="284" height="311" viewBox="0 0 284 311" fill="none" xmlns="http://www.w3.org/2000/svg">
<path d="M54.0107 176.066C39.2066 172.753 24.52 182.069 21.2072 196.873L39.4347 200.952C54.2387 204.264 68.9253 194.949 72.2381 180.145L54.0107 176.066Z" fill="#79C578"/>
<path d="M83.8632 193.061C69.0592 189.749 54.3726 199.064 51.0598 213.868L69.2872 217.947C84.0913 221.26 98.7779 211.944 102.091 197.14L83.8632 193.061Z" fill="#79C578"/>
<path d="M117.654 216.916C101.408 213.28 85.2906 223.503 81.6551 239.75L101.658 244.226C117.905 247.862 134.022 237.638 137.658 221.392L117.654 216.916Z" fill="#79C578"/>
<path d="M65.4735 155.791C56.9172 143.264 60.1361 126.173 72.663 117.617L83.1979 133.04C91.7542 145.567 88.5353 162.659 76.0083 171.215L65.4735 155.791Z" fill="#79C578"/>
<path d="M99.4788 174.282C90.9226 161.755 94.1414 144.663 106.668 136.107L117.203 151.531C125.76 164.058 122.541 181.149 110.014 189.705L99.4788 174.282Z" fill="#79C578"/>
<path d="M134.444 195.447C127.458 180.335 134.044 162.422 149.155 155.435L157.757 174.041C164.744 189.152 158.158 207.065 143.047 214.052L134.444 195.447Z" fill="#79C578"/>
<path d="M43.5722 158.337C59.8277 164.302 112.923 191.829 195.26 254.223" stroke="#79C578" stroke-width="3"/>
<path d="M185.485 253.116C180.865 253.542 168.263 240.259 166.894 236.915C153.694 204.603 92.9567 52.6505 140.886 21.2739C194.024 -13.538 272.946 182.425 267.398 207.816C261.85 233.207 193.288 253.675 193.288 253.675L185.485 253.116Z" fill="#8DDE8C"/>
<path d="M165.752 81.4443C165.752 81.4443 173.545 62.8759 176.454 55.9484C179.362 49.0209 183.483 30.7036 183.483 30.7036L184.93 32.0454C184.93 32.0454 175.016 73.7337 169.954 86.2386C164.892 98.7435 168.011 86.8437 168.011 86.8437L165.752 81.4443Z" fill="#79C578"/>
<path d="M173.631 106.376C173.631 106.376 154.388 101.952 147.91 100.269C141.432 98.5854 124.998 91.3705 124.998 91.3705L125.136 92.9639C125.136 92.9639 162.092 109.56 173.738 112.628C175.78 113.161 174.977 111.305 174.977 111.305L174.072 107.76" fill="#79C578"/>
<path d="M157.381 59.5594C157.381 59.5594 144.672 56.4006 140.398 55.2593C136.123 54.118 125.201 49.0834 125.201 49.0834L124.986 50.0425C124.986 50.0425 149.72 61.6946 157.434 63.8666C158.774 64.2316 158.294 62.9431 158.294 62.9431L157.717 60.5164" fill="#79C578"/>
<path d="M176.661 115.378C176.661 115.378 196.299 91.6038 201.532 76.5841C206.682 61.9157 206.916 58.2715 206.916 58.2715L207.821 59.4541C207.821 59.4541 199.689 97.6157 181.085 123.777C179.328 126.269 179.836 122.349 179.836 122.349L176.661 115.378Z" fill="#79C578"/>
<path d="M179.73 132.473C179.73 132.473 155.438 133.305 143.908 128.14C132.597 123.116 129.656 120.689 129.656 120.689L129.993 122.196C129.993 122.196 157.546 139.084 181.253 139.45C181.481 139.43 181.926 139.002 181.926 139.002L179.73 132.473Z" fill="#79C578"/>
<path d="M189.723 146.097C189.723 146.097 210.977 120.6 217.099 104.723C223.109 89.1306 223.646 85.2766 223.646 85.2766L224.324 86.4789C224.324 86.4789 214.225 126.83 193.9 154.839C191.974 157.483 192.718 153.382 192.718 153.382L189.723 146.097Z" fill="#79C578"/>
<path d="M191.389 163.956C191.389 163.956 164.601 164.845 151.902 159.163C139.46 153.527 137.089 151.325 137.089 151.325L137.57 153.164C137.57 153.164 166.892 171.411 193.058 171.815C193.286 171.795 193.797 171.338 193.797 171.338L191.389 163.956Z" fill="#79C578"/>
<path d="M200.846 176.159C200.846 176.159 223.339 149.338 230.047 132.814C236.643 116.574 237.492 112.349 237.492 112.349L238.132 113.647C238.132 113.647 226.417 155.721 204.787 185.082C202.69 187.879 203.576 183.559 203.576 183.559L200.846 176.159Z" fill="#79C578"/>
<path d="M202.803 192.87C202.803 192.87 174.496 193.707 161.188 187.344C148.098 181.122 145.051 178.268 145.051 178.268L145.713 180.344C145.713 180.344 177.017 200.804 204.598 201.383C204.854 201.429 205.402 200.877 205.402 200.877L202.803 192.87Z" fill="#79C578"/>
<path d="M213.184 208.845C213.184 208.845 234.438 183.347 240.561 167.47C246.571 151.878 246.966 148.243 246.966 148.243L248.06 148.951C248.06 148.951 237.782 189.616 217.428 217.558C215.501 220.203 215.355 216.408 215.355 216.408L213.184 208.845Z" fill="#79C578"/>
<path d="M214.879 226.771C214.879 226.771 188.091 227.659 175.392 221.977C162.95 216.341 156.157 211.566 156.157 211.566L156.857 213.546C156.857 213.546 190.382 234.226 216.577 234.696C216.804 234.676 217.315 234.219 217.315 234.219L214.879 226.771Z" fill="#79C578"/>
<path d="M145.149 19.1124L165.018 77.7469L225.355 242.784L215.091 246.912L144.603 23.1278L143.699 19.5828L145.149 19.1124Z" fill="#79C578"/>
</svg>
