<svg width="310" height="250" viewBox="0 0 310 250" fill="none" xmlns="http://www.w3.org/2000/svg">
<g id="maze-rule-animation">
<g id="Group">
<path id="Vector" d="M294.806 7.33813C293.115 4.57983 290.296 2.28992 287.194 1.11435C284.514 0.0581782 279.582 1.10784e-05 161.727 5.92681e-06C77.9176 2.26337e-06 38.2346 0.177561 36.4005 0.645952C32.6664 1.4664 27.8002 5.57783 26.8152 8.63002C26.2528 10.3903 26.0396 22.896 26.1793 51.2536L26.3925 91.3545L28.3662 93.8189C29.4247 95.169 31.6078 96.9905 33.2287 97.8691L36.1175 99.5131L61.7055 99.6876C79.329 99.8039 88.2785 99.6294 90.3221 99.158C94.0562 98.3375 98.9224 94.2843 99.9773 91.1739C100.4 89.9402 100.753 83.1317 100.753 75.616L100.753 62.2286L123.309 62.2286L145.864 62.2286L145.864 49.9004L145.864 37.5723L115.061 37.5723C95.6073 37.5723 83.1992 37.808 81.5085 38.2182C77.8441 39.0417 72.9081 43.1501 71.9231 46.086C71.5004 47.4942 71.1476 53.8955 71.1476 61.8214L71.1476 75.1476L63.3925 75.1476L55.6375 75.1476L55.6375 49.9004L55.6375 24.6533L108.5 24.6533L161.367 24.6533L161.367 43.4409L161.367 62.2286L176.168 62.2286L190.969 62.2286L190.969 43.4409L190.969 24.6533L228.678 24.6533L266.388 24.6533L266.388 31.1128L266.388 37.5723L236.429 37.5723L206.482 37.5723L206.482 49.9004L206.482 62.2286L236.441 62.2286L266.399 62.2286L266.399 81.0163L266.399 99.807L281.199 99.807L296 99.807L296 54.4833C295.93 14.3242 295.791 8.92392 294.806 7.33813Z" fill="#191263"/>
<path id="Vector_2" d="M281.199 150.298L266.399 150.298L266.399 187.874L266.399 225.449L228.689 225.449L190.98 225.449L190.98 200.202L190.98 174.955L206.133 174.955L221.287 174.955L221.287 181.414L221.287 187.874L213.885 187.874L206.483 187.874L206.483 200.202L206.483 212.53L222.202 212.53C230.942 212.53 239.05 212.236 240.528 211.884C243.839 211.122 247.717 208.36 249.551 205.425C250.819 203.312 250.888 201.785 250.888 181.531C250.888 157.637 250.888 157.459 246.518 153.993C242.009 150.353 241.443 150.295 214.94 150.295L190.976 150.295L190.976 131.508L190.976 112.72L176.175 112.72L161.375 112.72L161.375 169.086L161.375 225.449L131.064 225.449L100.753 225.449L100.753 212.827L100.753 200.205L85.9521 200.205L71.1513 200.205L71.1513 212.827L71.1513 225.449L63.3963 225.449L55.6412 225.449L55.6412 206.367L55.6412 187.286L85.9521 187.286L116.263 187.286L116.263 199.908L116.263 212.53L131.064 212.53L145.864 212.53L145.864 192.689L145.864 172.845L143.961 169.616C142.479 167.268 141.142 166.034 138.532 164.684L135.077 162.924L95.3206 162.746L55.6375 162.568L55.6375 156.461L55.6375 150.295L40.8368 150.295L26.036 150.295L26.1757 195.974L26.3888 241.653L28.3625 244.117C29.421 245.467 31.6042 247.289 33.225 248.168L36.1837 249.811L159.463 249.986C244.118 250.044 283.592 249.928 285.496 249.518C288.881 248.755 292.828 245.936 294.659 243C295.927 240.826 295.996 239.124 295.996 195.503L295.996 150.298L281.199 150.298Z" fill="#191263"/>
</g>
<path id="line" d="M2 126C19.8333 132.667 60.0254 139.867 85 129.5C111.5 118.5 111 98.5 132.5 88.5C155.9 77.6163 200 78.9999 215 98.5C225.347 111.951 217 133 244 129.5C271 126 284.5 109 305 129.5" stroke="#FA8273" stroke-width="6"/>
<path id="Vector 55" d="M285 132L306.5 131L302 108" stroke="#FA8273" stroke-width="5"/>
</g>
</svg>
