<svg width="250" height="250" viewBox="0 0 143 113" fill="none" xmlns="http://www.w3.org/2000/svg" style="">
<path width="141" height="110.895" stroke="#191263" stroke-width="2" d="M1 1 L142 1 L142 111.895 L1 111.895 Z" class="VByfdnlX_0"></path>
<path d="M28.6938 112.424V0.940796" stroke="#191263" stroke-width="2" stroke-linejoin="round" class="VByfdnlX_1"></path>
<path d="M57.3882 112.424V0.940796" stroke="#191263" stroke-width="2" stroke-linejoin="round" class="VByfdnlX_2"></path>
<path d="M86.082 112.424V0.940796" stroke="#191263" stroke-width="2" stroke-linejoin="round" class="VByfdnlX_3"></path>
<path d="M114.776 112.424V0.940796" stroke="#191263" stroke-width="2" stroke-linejoin="round" class="VByfdnlX_4"></path>
<path d="M142.059 26.3422L0 26.342" stroke="#191263" stroke-width="2" stroke-linejoin="round" class="VByfdnlX_5"></path>
<path d="M142.059 54.5659L0 54.5658" stroke="#191263" stroke-width="2" stroke-linejoin="round" class="VByfdnlX_6"></path>
<path d="M142.059 82.7897L0 82.7895" stroke="#191263" stroke-width="2" stroke-linejoin="round" class="VByfdnlX_7"></path>
<path d="M36 27L29 37.5M45.5 27L29 48.5M51 27L29 54.5M40 27L29 43M56.5 27L34 54.5M56.5 32.5L40 54.5M56.5 43L45.5 54.5M56.5 48.5L51 54.5" stroke="#191263" stroke-width="2" stroke-linejoin="round" class="VByfdnlX_8"></path>
<path d="M33 27L29 32M62.5 55L58 63M66.5 55L58 73M71.5 55L58 79M75 55L58 82.5M78.5 55L62.5 82.5M82.5 55L66.5 82.5M85.5 55C84.7 57 75.8333 74.1667 71.5 82.5M85.5 63L77 82.5M85.5 71.5L81 82.5M93 55L85.5 61M97.5 55L85.5 67M103 55L86.5 70.5M108 55L86.5 74.5M112 55L86.5 79M114.5 57.5L86.5 82.5M114.5 65L91.5 82.5M114.5 71.5L96 82.5M114.5 76.5L103 82.5" stroke="#191263" stroke-width="2" stroke-linejoin="round" class="VByfdnlX_9"></path>
<path d="M24 83.5L27.5 91M18 83.5L27.5 95.5M14 83.5L27.5 101M9.5 83.5L27.5 105.5M5 83.5L27.5 109.5M2 83.5L24 111.5M2 91L20.5 111.5M2 95.5L16 111.5M2 101L9.5 111.5M2 105.5L5 111.5" stroke="#191263" stroke-width="2" stroke-linejoin="round" class="VByfdnlX_10"></path>
<path d="M61 84L57.5 89.5M65.5 84C63.9 86 59.5 93.5 57.5 97M70 84L57.5 101.5M74 84L57.5 106.5M77.5 84L57.5 110M81.5 84L61 111.5M85 84L65.5 111.5M85 87C85 89 75 104.167 70 111.5M85 94.5C85 96.5 77.6667 106.667 74 111.5M85 99.5L79 111.5M85 105L83 111.5M90 2L86.5 9.5M96 2L86.5 17M100 2L86.5 21.5M103.5 2L86.5 26M107 2L90 26M110.5 2L94.5 26M113.5 2L100 26M115 6L103.5 26M115 14L107 26M115 20L110.5 26" stroke="#191263" stroke-width="2" stroke-linejoin="round" class="VByfdnlX_11"></path>
<style data-made-with="vivus-instant">.VByfdnlX_0{stroke-dasharray:504 506;stroke-dashoffset:505;animation:VByfdnlX_draw_0 5200ms linear 0ms infinite,VByfdnlX_fade 5200ms linear 0ms infinite;}.VByfdnlX_1{stroke-dasharray:112 114;stroke-dashoffset:113;animation:VByfdnlX_draw_1 5200ms linear 0ms infinite,VByfdnlX_fade 5200ms linear 0ms infinite;}.VByfdnlX_2{stroke-dasharray:112 114;stroke-dashoffset:113;animation:VByfdnlX_draw_2 5200ms linear 0ms infinite,VByfdnlX_fade 5200ms linear 0ms infinite;}.VByfdnlX_3{stroke-dasharray:112 114;stroke-dashoffset:113;animation:VByfdnlX_draw_3 5200ms linear 0ms infinite,VByfdnlX_fade 5200ms linear 0ms infinite;}.VByfdnlX_4{stroke-dasharray:112 114;stroke-dashoffset:113;animation:VByfdnlX_draw_4 5200ms linear 0ms infinite,VByfdnlX_fade 5200ms linear 0ms infinite;}.VByfdnlX_5{stroke-dasharray:143 145;stroke-dashoffset:144;animation:VByfdnlX_draw_5 5200ms linear 0ms infinite,VByfdnlX_fade 5200ms linear 0ms infinite;}.VByfdnlX_6{stroke-dasharray:143 145;stroke-dashoffset:144;animation:VByfdnlX_draw_6 5200ms linear 0ms infinite,VByfdnlX_fade 5200ms linear 0ms infinite;}.VByfdnlX_7{stroke-dasharray:143 145;stroke-dashoffset:144;animation:VByfdnlX_draw_7 5200ms linear 0ms infinite,VByfdnlX_fade 5200ms linear 0ms infinite;}.VByfdnlX_8{stroke-dasharray:182 184;stroke-dashoffset:183;animation:VByfdnlX_draw_8 5200ms linear 0ms infinite,VByfdnlX_fade 5200ms linear 0ms infinite;}.VByfdnlX_9{stroke-dasharray:438 440;stroke-dashoffset:439;animation:VByfdnlX_draw_9 5200ms linear 0ms infinite,VByfdnlX_fade 5200ms linear 0ms infinite;}.VByfdnlX_10{stroke-dasharray:213 215;stroke-dashoffset:214;animation:VByfdnlX_draw_10 5200ms linear 0ms infinite,VByfdnlX_fade 5200ms linear 0ms infinite;}.VByfdnlX_11{stroke-dasharray:452 454;stroke-dashoffset:453;animation:VByfdnlX_draw_11 5200ms linear 0ms infinite,VByfdnlX_fade 5200ms linear 0ms infinite;}@keyframes VByfdnlX_draw{100%{stroke-dashoffset:0;}}@keyframes VByfdnlX_fade{0%{stroke-opacity:1;}96.15384615384616%{stroke-opacity:1;}100%{stroke-opacity:0;}}@keyframes VByfdnlX_draw_0{9.615384615384617%{stroke-dashoffset: 505}22.307835928074915%{ stroke-dashoffset: 0;}100%{ stroke-dashoffset: 0;}}@keyframes VByfdnlX_draw_1{22.307835928074915%{stroke-dashoffset: 113}25.14792899408284%{ stroke-dashoffset: 0;}100%{ stroke-dashoffset: 0;}}@keyframes VByfdnlX_draw_2{25.14792899408284%{stroke-dashoffset: 113}27.988022060090767%{ stroke-dashoffset: 0;}100%{ stroke-dashoffset: 0;}}@keyframes VByfdnlX_draw_3{27.988022060090774%{stroke-dashoffset: 113}30.828115126098698%{ stroke-dashoffset: 0;}100%{ stroke-dashoffset: 0;}}@keyframes VByfdnlX_draw_4{30.828115126098698%{stroke-dashoffset: 113}33.668208192106626%{ stroke-dashoffset: 0;}100%{ stroke-dashoffset: 0;}}@keyframes VByfdnlX_draw_5{33.668208192106626%{stroke-dashoffset: 144}37.28744183374504%{ stroke-dashoffset: 0;}100%{ stroke-dashoffset: 0;}}@keyframes VByfdnlX_draw_6{37.28744183374504%{stroke-dashoffset: 144}40.906675475383466%{ stroke-dashoffset: 0;}100%{ stroke-dashoffset: 0;}}@keyframes VByfdnlX_draw_7{40.906675475383466%{stroke-dashoffset: 144}44.52590911702188%{ stroke-dashoffset: 0;}100%{ stroke-dashoffset: 0;}}@keyframes VByfdnlX_draw_8{44.52590911702188%{stroke-dashoffset: 183}49.12535186993738%{ stroke-dashoffset: 0;}100%{ stroke-dashoffset: 0;}}@keyframes VByfdnlX_draw_9{49.12535186993738%{stroke-dashoffset: 439}60.1589877635434%{ stroke-dashoffset: 0;}100%{ stroke-dashoffset: 0;}}@keyframes VByfdnlX_draw_10{60.1589877635434%{stroke-dashoffset: 214}65.53757109208938%{ stroke-dashoffset: 0;}100%{ stroke-dashoffset: 0;}}@keyframes VByfdnlX_draw_11{65.53757109208938%{stroke-dashoffset: 453}76.92307692307693%{ stroke-dashoffset: 0;}100%{ stroke-dashoffset: 0;}}</style></svg>
