<svg width="143" height="113" viewBox="0 0 143 113" fill="none" xmlns="http://www.w3.org/2000/svg">
<rect x="1" y="1" width="141" height="110.895" stroke="#191263" stroke-width="2"/>
<path d="M28.6938 112.424V0.940796" stroke="#191263" stroke-width="2" stroke-linejoin="round"/>
<path d="M57.3882 112.424V0.940796" stroke="#191263" stroke-width="2" stroke-linejoin="round"/>
<path d="M86.082 112.424V0.940796" stroke="#191263" stroke-width="2" stroke-linejoin="round"/>
<path d="M114.776 112.424V0.940796" stroke="#191263" stroke-width="2" stroke-linejoin="round"/>
<path d="M142.059 26.3422L0 26.342" stroke="#191263" stroke-width="2" stroke-linejoin="round"/>
<path d="M142.059 54.5659L0 54.5658" stroke="#191263" stroke-width="2" stroke-linejoin="round"/>
<path d="M142.059 82.7897L0 82.7895" stroke="#191263" stroke-width="2" stroke-linejoin="round"/>
<path d="M36 27L29 37.5M45.5 27L29 48.5M51 27L29 54.5M40 27L29 43M56.5 27L34 54.5M56.5 32.5L40 54.5M56.5 43L45.5 54.5M56.5 48.5L51 54.5" stroke="#191263" stroke-width="2" stroke-linejoin="round"/>
<path d="M33 27L29 32M62.5 55L58 63M66.5 55L58 73M71.5 55L58 79M75 55L58 82.5M78.5 55L62.5 82.5M82.5 55L66.5 82.5M85.5 55C84.7 57 75.8333 74.1667 71.5 82.5M85.5 63L77 82.5M85.5 71.5L81 82.5M93 55L85.5 61M97.5 55L85.5 67M103 55L86.5 70.5M108 55L86.5 74.5M112 55L86.5 79M114.5 57.5L86.5 82.5M114.5 65L91.5 82.5M114.5 71.5L96 82.5M114.5 76.5L103 82.5" stroke="#191263" stroke-width="2" stroke-linejoin="round"/>
<path d="M24 83.5L27.5 91M18 83.5L27.5 95.5M14 83.5L27.5 101M9.5 83.5L27.5 105.5M5 83.5L27.5 109.5M2 83.5L24 111.5M2 91L20.5 111.5M2 95.5L16 111.5M2 101L9.5 111.5M2 105.5L5 111.5" stroke="#191263" stroke-width="2" stroke-linejoin="round"/>
<path d="M61 84L57.5 89.5M65.5 84C63.9 86 59.5 93.5 57.5 97M70 84L57.5 101.5M74 84L57.5 106.5M77.5 84L57.5 110M81.5 84L61 111.5M85 84L65.5 111.5M85 87C85 89 75 104.167 70 111.5M85 94.5C85 96.5 77.6667 106.667 74 111.5M85 99.5L79 111.5M85 105L83 111.5M90 2L86.5 9.5M96 2L86.5 17M100 2L86.5 21.5M103.5 2L86.5 26M107 2L90 26M110.5 2L94.5 26M113.5 2L100 26M115 6L103.5 26M115 14L107 26M115 20L110.5 26" stroke="#191263" stroke-width="2" stroke-linejoin="round"/>
</svg>
