<svg width="153" height="140" viewBox="0 0 153 140" fill="none" xmlns="http://www.w3.org/2000/svg">
<path d="M124.147 68.1099C131.939 66.1696 139.829 70.9134 141.769 78.7054V78.7054L132.175 81.0943C124.383 83.0346 116.494 78.2909 114.553 70.4989V70.4989L124.147 68.1099Z" fill="#79C578"/>
<path d="M108.565 77.481C116.357 75.5407 124.247 80.2844 126.187 88.0765V88.0765L116.593 90.4654C108.801 92.4057 100.912 87.662 98.9712 79.8699V79.8699L108.565 77.481Z" fill="#79C578"/>
<path d="M90.9856 90.5317C99.5367 88.4024 108.195 93.6083 110.324 102.159V102.159L99.7956 104.781C91.2445 106.91 82.5863 101.705 80.457 93.1534V93.1534L90.9856 90.5317Z" fill="#79C578"/>
<path d="M117.825 57.5261C122.194 50.7889 120.275 41.7854 113.538 37.4161V37.4161L108.158 45.7112C103.789 52.4483 105.708 61.4519 112.445 65.8212V65.8212L117.825 57.5261Z" fill="#79C578"/>
<path d="M100.064 67.7409C104.434 61.0038 102.514 52.0002 95.7769 47.6309V47.6309L90.3972 55.926C86.0279 62.6632 87.9474 71.6667 94.6845 76.0361V76.0361L100.064 67.7409Z" fill="#79C578"/>
<path d="M81.8295 79.3832C85.3355 71.2984 81.6237 61.9022 73.539 58.3962V58.3962L69.2222 68.3505C65.7161 76.4353 69.4279 85.8315 77.5127 89.3375V89.3375L81.8295 79.3832Z" fill="#79C578"/>
<path d="M129.447 58.5966C120.921 61.9584 93.172 77.1966 50.3905 111.255" stroke="#79C578" stroke-width="3"/>
<path d="M46.6624 30.0024C42.8512 22.9345 34.032 20.2944 26.9641 24.1055V24.1055L31.6565 32.8078C35.4677 39.8758 44.2869 42.5159 51.3548 38.7048V38.7048L46.6624 30.0024Z" fill="#8DDE8C"/>
<path d="M50.2234 47.8333C46.4123 40.7653 37.5931 38.1252 30.5251 41.9363V41.9363L35.2176 50.6387C39.0287 57.7066 47.8479 60.3467 54.9158 56.5356V56.5356L50.2234 47.8333Z" fill="#8DDE8C"/>
<path d="M52.4084 69.6183C48.226 61.8619 38.5476 58.9645 30.7911 63.1469V63.1469L35.9407 72.6971C40.1231 80.4536 49.8015 83.3509 57.5579 79.1685V79.1685L52.4084 69.6183Z" fill="#8DDE8C"/>
<path d="M58.7445 27.5519C60.7846 19.7855 68.7344 15.1433 76.5009 17.1835V17.1835L73.989 26.7459C71.9489 34.5124 63.9991 39.1545 56.2326 37.1144V37.1144L58.7445 27.5519Z" fill="#8DDE8C"/>
<path d="M63.1483 47.5617C65.1884 39.7952 73.1383 35.1531 80.9047 37.1932V37.1932L78.3928 46.7557C76.3527 54.5222 68.4029 59.1643 60.6364 57.1242V57.1242L63.1483 47.5617Z" fill="#8DDE8C"/>
<path d="M66.8161 68.8831C70.4339 60.8477 79.8807 57.2665 87.9161 60.8843V60.8843L83.4617 70.7779C79.8439 78.8133 70.3972 82.3944 62.3618 78.7767V78.7767L66.8161 68.8831Z" fill="#8DDE8C"/>
<path d="M50.1291 19.6788C53.3836 28.2469 60.7971 59.0239 64.4149 113.587" stroke="#8DDE8C" stroke-width="3"/>
</svg>
