<svg width="210" height="55" viewBox="0 0 210 55" fill="none" xmlns="http://www.w3.org/2000/svg">
<path d="M156.974 24.4736H133.474M156.974 32.9736H133.474" stroke="#191263" stroke-width="5" stroke-linecap="square" stroke-linejoin="bevel"/>
<path d="M87.9736 14.4736H108.974L94.7095 43.4736M94.7095 28.3777H108.974" stroke="#191263" stroke-width="5" stroke-linecap="square" stroke-linejoin="bevel"/>
<path d="M168.474 22.9736L182.474 10.4736L179.474 47.9736M192.974 22.9736L206.974 10.4736L203.974 47.9736" stroke="#191263" stroke-width="5" stroke-linecap="square" stroke-linejoin="bevel"/>
<path d="M38.8911 11.6673L11.6674 38.8908L15.2029 42.4264L42.4266 15.2029L38.8911 11.6673ZM12.0209 15.2027L39.2445 42.4263L42.78 38.8908L15.5564 11.6672L12.0209 15.2027Z" fill="#191263"/>
<path d="M60.3178 16.4736V37.4736H65.3178V16.4736H60.3178ZM50.9736 29.3169H74.9736V24.3169H50.9736V29.3169Z" fill="#191263"/>
</svg>
