<svg width="143" height="113" viewBox="0 0 143 113" fill="none" xmlns="http://www.w3.org/2000/svg">
<path d="M37.6317 40.4539L42.806 30.5756V51.273M121.832 93.1381C121.989 90.0022 125.125 85.3178 129.829 87.9638C134.533 90.6098 125.752 101.292 119.951 105.839H135.003M121.362 9.87827C122.616 7.3695 127.477 3.29274 129.829 7.52635C131.202 9.9973 127.947 13.3278 124.655 13.6414C130.143 14.4254 136.885 15.523 135.474 20.6973C133.927 26.3685 122.93 22.2653 119.48 20.6973M77.6153 77.6151V57.8585L66.7962 69.6184H80.908M21.1679 87.9638H9.87842V95.9605C14.4256 95.1765 21.1679 95.0017 21.1679 101.135C21.1679 107.72 12.8576 106.78 9.87842 105.839" stroke="#191263" stroke-width="2" stroke-linejoin="round"/>
<path d="M121.832 93.1382C121.989 90.0022 125.125 85.3179 129.829 87.9638M119.951 105.839H135.003" stroke="#191263" stroke-width="2" stroke-linejoin="round"/>
<rect x="1" y="1" width="141" height="110.895" stroke="#191263" stroke-width="2"/>
<path d="M28.6938 112.424V0.940796" stroke="#191263" stroke-width="2" stroke-linejoin="round"/>
<path d="M57.3882 112.424V0.940796" stroke="#191263" stroke-width="2" stroke-linejoin="round"/>
<path d="M86.082 112.424V0.940796" stroke="#191263" stroke-width="2" stroke-linejoin="round"/>
<path d="M114.776 112.424V0.940796" stroke="#191263" stroke-width="2" stroke-linejoin="round"/>
<path d="M142.059 26.3422L0 26.342" stroke="#191263" stroke-width="2" stroke-linejoin="round"/>
<path d="M142.059 54.5659L0 54.5658" stroke="#191263" stroke-width="2" stroke-linejoin="round"/>
<path d="M142.059 82.7897L0 82.7895" stroke="#191263" stroke-width="2" stroke-linejoin="round"/>
</svg>
