<svg width="201" height="108" viewBox="0 0 201 108" fill="none" xmlns="http://www.w3.org/2000/svg">
<path d="M147.158 4.13075C116.5 15 110.498 18.5884 88.8111 18.5884C73.3208 18.5884 58.3468 0 36.6604 0C8.77784 0 0 14.974 0 25.3008C0 33.5623 5.16344 42.8565 6.71247 42.8565C6.71247 40.2748 9.81053 30.9806 10.8432 29.9479C11.8759 33.5623 33.5623 58.8632 52.6671 58.8632V59.0078C53.7165 58.3056 54.9369 57.9016 56.1981 57.8391C57.4592 57.7765 58.7136 58.0577 59.8274 58.6525C60.9412 59.2474 61.8725 60.1336 62.5218 61.2165C63.1711 62.2995 63.5141 63.5384 63.5141 64.8011C63.5141 66.0638 63.1711 67.3028 62.5218 68.3857C61.8725 69.4687 60.9412 70.3549 59.8274 70.9498C58.7136 71.5446 57.4592 71.8258 56.1981 71.7632C54.9369 71.7007 53.7165 71.2967 52.6671 70.5945V85.7131H57.8305C64.543 85.7131 67.641 83.1313 77.9679 83.1313C96.0399 83.1313 88.8111 117.5 152.321 105.334C195 93 194.645 88.5 199.825 51.6344C206.5 4.13075 177.816 -6.7385 147.158 4.13075Z" fill="#191263"/>
</svg>
