<svg width="199" height="107" viewBox="0 0 199 107" fill="none" xmlns="http://www.w3.org/2000/svg">
<path d="M144.212 0.5C124.075 0.5 111.21 23.4614 89.5235 23.4614C74.0332 23.4614 59.0592 4.87304 37.3728 4.87304C9.49025 4.87304 0.712402 19.847 0.712402 30.1739C0.712402 38.4354 5.87584 47.7296 7.42487 47.7296C7.42487 45.1479 10.5229 35.8537 11.5556 34.821C12.5883 38.4354 34.2747 63.7362 53.3795 63.7362V63.8808C54.4289 63.1786 55.6493 62.7747 56.9105 62.7121C58.1716 62.6495 59.426 62.9307 60.5398 63.5256C61.6536 64.1204 62.5849 65.0066 63.2342 66.0896C63.8835 67.1725 64.2265 68.4115 64.2265 69.6742C64.2265 70.9369 63.8835 72.1758 63.2342 73.2588C62.5849 74.3417 61.6536 75.2279 60.5398 75.8228C59.426 76.4177 58.1716 76.6988 56.9105 76.6363C55.6493 76.5737 54.4289 76.1697 53.3795 75.4676V90.5861H58.5429C65.2554 90.5861 68.3534 88.0044 78.6803 88.0044C96.7523 88.0044 145.519 106.5 176.5 106.5C210.062 106.5 195.5 69.3989 195.5 41C195.5 3.30691 161.252 0.5 144.212 0.5Z" fill="#191263"/>
</svg>
